<?xml version="1.0" encoding="UTF-8" standalone="no"?>
<svg
   xmlns:dc="http://purl.org/dc/elements/1.1/"
   xmlns:cc="http://creativecommons.org/ns#"
   xmlns:rdf="http://www.w3.org/1999/02/22-rdf-syntax-ns#"
   xmlns:svg="http://www.w3.org/2000/svg"
   xmlns="http://www.w3.org/2000/svg"
   version="1.1"
   id="svg2"
   viewBox="0 0 788.02423 324.65632"
   height="91.625229mm"
   width="222.39795mm">
  <defs
     id="defs4">
    <marker
       style="overflow:visible"
       id="marker4592"
       refX="0"
       refY="0"
       orient="auto">
      <path
         transform="matrix(-0.8,0,0,-0.8,-10,0)"
         style="fill:#000000;fill-opacity:1;fill-rule:evenodd;stroke:#000000;stroke-width:1pt;stroke-opacity:1"
         d="M 0,0 5,-5 -12.5,0 5,5 0,0 Z"
         id="path4594" />
    </marker>
    <marker
       orient="auto"
       refY="0"
       refX="0"
       id="marker4534"
       style="overflow:visible">
      <path
         id="path4536"
         d="M 0,0 5,-5 -12.5,0 5,5 0,0 Z"
         style="fill:#000000;fill-opacity:1;fill-rule:evenodd;stroke:#000000;stroke-width:1pt;stroke-opacity:1"
         transform="matrix(0.8,0,0,0.8,10,0)" />
    </marker>
    <marker
       orient="auto"
       refY="0"
       refX="0"
       id="marker4494"
       style="overflow:visible">
      <path
         id="path4496"
         d="M 0,0 5,-5 -12.5,0 5,5 0,0 Z"
         style="fill:#000000;fill-opacity:1;fill-rule:evenodd;stroke:#000000;stroke-width:1pt;stroke-opacity:1"
         transform="matrix(-0.8,0,0,-0.8,-10,0)" />
    </marker>
    <marker
       style="overflow:visible"
       id="Arrow1Lstart"
       refX="0"
       refY="0"
       orient="auto">
      <path
         transform="matrix(0.8,0,0,0.8,10,0)"
         style="fill:#ff0000;fill-opacity:1;fill-rule:evenodd;stroke:#ff0000;stroke-width:1pt;stroke-opacity:1"
         d="M 0,0 5,-5 -12.5,0 5,5 0,0 Z"
         id="path4168" />
    </marker>
    <marker
       style="overflow:visible"
       id="Arrow1Lend"
       refX="0"
       refY="0"
       orient="auto">
      <path
         transform="matrix(-0.8,0,0,-0.8,-10,0)"
         style="fill:#ff0000;fill-opacity:1;fill-rule:evenodd;stroke:#ff0000;stroke-width:1pt;stroke-opacity:1"
         d="M 0,0 5,-5 -12.5,0 5,5 0,0 Z"
         id="path4171" />
    </marker>
  </defs>
  <metadata
     id="metadata7">
    <rdf:RDF>
      <cc:Work
         rdf:about="">
        <dc:format>image/svg+xml</dc:format>
        <dc:type
           rdf:resource="http://purl.org/dc/dcmitype/StillImage" />
        <dc:title></dc:title>
      </cc:Work>
    </rdf:RDF>
  </metadata>
  <g
     transform="translate(74.241136,12.855668)"
     id="layer1">
    <path
       id="path4136"
       d="m 638.41641,161.40766 c -1.34687,0 -2.7199,0.26415 -4.04061,0 -0.46695,-0.0934 -0.58424,-0.79719 -1.01015,-1.01015 -0.26118,-0.13059 -5.34492,0 -6.06092,0 -0.7026,0 -4.68546,0.18265 -5.05076,0 -0.42592,-0.21296 -0.58424,-0.79719 -1.01015,-1.01015 -0.63491,-0.31745 -3.40571,0.31745 -4.04062,0 -0.42591,-0.21296 -0.58423,-0.7972 -1.01015,-1.01015 -0.6349,-0.31746 -3.4057,0.31745 -4.04061,0 -0.42592,-0.21296 -0.58423,-0.7972 -1.01015,-1.01016 -0.6349,-0.31745 -3.40571,0.31745 -4.04061,0 -2.4965,-1.24824 0.34868,-1.01015 -2.02031,-1.01015 -0.45493,0 -2.72303,0.15371 -3.03045,0 -0.42592,-0.21296 -0.58424,-0.79719 -1.01016,-1.01015 -0.60233,-0.30117 -1.41796,0.30117 -2.0203,0 -0.42592,-0.21296 -0.58424,-0.7972 -1.01015,-1.01015 -0.60234,-0.30117 -1.41797,0.30116 -2.02031,0 -0.42592,-0.21296 -0.58423,-0.7972 -1.01015,-1.01016 -0.60234,-0.30117 -1.41797,0.30117 -2.02031,0 -0.42591,-0.21296 -0.55839,-0.85957 -1.01015,-1.01015 -0.63888,-0.21296 -1.38143,0.21296 -2.0203,0 -0.45176,-0.15058 -0.5584,-0.85957 -1.01016,-1.01015 -0.6872,-0.22907 -4.51514,0.26781 -5.05076,0 -0.42592,-0.21296 -0.58423,-0.7972 -1.01015,-1.01016 -0.63491,-0.31745 -3.40571,0.31746 -4.04061,0 -0.42592,-0.21295 -0.58424,-0.79719 -1.01015,-1.01015 -0.65622,-0.32811 -4.41001,0.32038 -5.05077,0 -0.42591,-0.21296 -0.58423,-0.79719 -1.01015,-1.01015 -0.6349,-0.31745 -3.40571,0.31745 -4.04061,0 -0.42592,-0.21296 -0.58423,-0.79719 -1.01015,-1.01015 -0.63491,-0.31745 -3.40571,0.31745 -4.04061,0 -0.42592,-0.21296 -0.58424,-0.7972 -1.01016,-1.01016 -0.63727,-0.31863 -4.41348,0.31864 -5.05076,0 -0.42592,-0.21295 -0.58423,-0.79719 -1.01015,-1.01015 -0.80812,-0.40406 -2.22234,0.40406 -3.03046,0 -0.42592,-0.21296 -0.58423,-0.79719 -1.01015,-1.01015 -0.63727,-0.31864 -4.41349,0.31864 -5.05076,0 -0.42592,-0.21296 -0.58424,-0.79719 -1.01016,-1.01015 -0.6349,-0.31745 -3.4057,0.31745 -4.04061,0 -0.42591,-0.21296 -0.58423,-0.7972 -1.01015,-1.01016 -0.63727,-0.31863 -4.41349,0.31864 -5.05076,0 -0.42592,-0.21295 -0.58424,-0.79719 -1.01015,-1.01015 -1.07413,-0.53706 -0.94618,0.53707 -2.02031,0 -0.42592,-0.21296 -0.58423,-0.79719 -1.01015,-1.01015 -0.6349,-0.31745 -3.40571,0.31745 -4.04061,0 -0.42592,-0.21296 -0.58424,-0.79719 -1.01015,-1.01015 -1.0779,-0.53895 -0.94241,0.53894 -2.02031,0 -0.42592,-0.21296 -0.58423,-0.7972 -1.01015,-1.01016 -0.63491,-0.31745 -3.40571,0.31746 -4.04061,0 -0.42592,-0.21295 -0.58424,-0.79719 -1.01015,-1.01015 -0.63728,-0.31864 -4.41349,0.31864 -5.05077,0 -0.42592,-0.21296 -0.58423,-0.79719 -1.01015,-1.01015 -0.30117,-0.15059 -0.67343,0 -1.01015,0 -1.68359,0 -3.36718,0 -5.05077,0 -0.33671,0 -0.67343,0 -1.01015,0 -0.33672,0 -0.70898,0.15058 -1.01015,0 -0.42592,-0.21296 -0.53396,-1.01015 -1.01015,-1.01015 -0.47619,0 -0.58424,0.79719 -1.01016,1.01015 -0.26561,0.1328 -3.51238,0 -4.04061,0 -2.69374,0 -5.38748,0 -8.08122,0 -9.42809,0 -18.85618,0 -28.28427,0 -0.33671,0 -0.67343,0 -1.01015,0 -0.33672,0 -0.70898,-0.15059 -1.01015,0 -0.42592,0.21296 -0.58424,0.79719 -1.01015,1.01015 -0.63728,0.31864 -4.41349,-0.31864 -5.05077,0 -0.42592,0.21296 -0.58423,0.7972 -1.01015,1.01015 -0.80812,0.40407 -2.22234,-0.40406 -3.03046,0 -0.42592,0.21296 -0.58423,0.7972 -1.01015,1.01016 -0.30117,0.15058 -0.70898,-0.15059 -1.01015,0 -0.42592,0.21296 -0.58424,0.79719 -1.01016,1.01015 -0.30116,0.15058 -0.70898,-0.15059 -1.01015,0 -0.42592,0.21296 -0.58423,0.79719 -1.01015,1.01015 -0.30117,0.15059 -0.70898,-0.15058 -1.01015,0 -0.42592,0.21296 -0.58424,0.7972 -1.01016,1.01015 -0.30116,0.15059 -0.70898,-0.15058 -1.01015,0 -0.85183,0.42592 -1.16847,1.59439 -2.0203,2.02031 -0.30117,0.15058 -0.70899,-0.15058 -1.01016,0 -0.42591,0.21296 -0.58423,0.79719 -1.01015,1.01015 -0.30117,0.15059 -0.70898,-0.15058 -1.01015,0 -0.42592,0.21296 -0.58424,0.7972 -1.01015,1.01015 -0.30117,0.15059 -0.70899,-0.15058 -1.01016,0 -0.42591,0.21296 -0.67343,0.67344 -1.01015,1.01016 -0.33672,0.33671 -0.79719,0.58423 -1.01015,1.01015 -0.15059,0.30117 0.23809,0.77206 0,1.01015 -0.2381,0.2381 -0.77206,-0.23809 -1.01015,0 -0.2381,0.2381 0.15058,0.70899 0,1.01015 -0.42592,0.85184 -1.59439,1.16847 -2.02031,2.02031 -0.1328,0.26561 0,3.51238 0,4.04061 0,0.45493 -0.15371,2.72303 0,3.03046 0.21296,0.42592 0.7972,0.58423 1.01015,1.01015 0.40406,0.80812 -0.40406,2.22234 0,3.03046 0.21296,0.42592 0.7972,0.58423 1.01016,1.01015 0.15058,0.30117 -0.15059,0.70898 0,1.01015 0.21296,0.42592 0.79719,0.58424 1.01015,1.01016 0.15058,0.30117 -0.2381,0.77205 0,1.01015 0.23809,0.23809 0.77206,-0.2381 1.01015,0 0.2381,0.23809 -0.23809,0.77206 0,1.01015 0.2381,0.2381 0.77206,-0.23809 1.01015,0 0.2381,0.2381 -0.23809,0.77206 0,1.01015 0.2381,0.2381 0.77206,-0.23809 1.01016,0 2.09004,2.09004 -3.19386,-0.0817 1.01015,2.02031 0.30117,0.15058 0.77206,-0.2381 1.01015,0 0.2381,0.23809 -0.23809,0.77206 0,1.01015 0.2381,0.2381 0.70899,-0.15058 1.01015,0 0.42592,0.21296 0.58424,0.79719 1.01016,1.01015 0.60234,0.30117 1.41796,-0.30117 2.0203,0 0.42592,0.21296 0.58424,0.7972 1.01015,1.01016 0.55589,0.27794 5.27119,-0.26325 6.06092,0 0.45175,0.15058 0.54818,0.89466 1.01015,1.01015 0.97999,0.245 2.02031,0 3.03046,0 1.01015,0 2.02031,0 3.03046,0 0.67343,0 1.35995,-0.13207 2.0203,0 1.04412,0.20882 1.99746,0.7519 3.03046,1.01015 0.83711,0.20928 3.98705,0 5.05076,0 0.45493,0 2.72304,0.15371 3.03046,0 0.42592,-0.21296 0.58424,-0.79719 1.01015,-1.01015 0.30743,-0.15371 2.57553,0 3.03046,0 2.02031,0 4.04061,0 6.06092,0 4.37732,0 8.75465,0 13.13198,0 0.716,0 5.79974,-0.13059 6.06091,0 0.42592,0.21296 0.58424,0.79719 1.01016,1.01015 0.28911,0.14456 4.51112,0 5.05076,0 0.39933,0 4.61934,0.21571 5.05076,0 0.42592,-0.21296 0.58424,-0.79719 1.01016,-1.01015 0.0836,-0.0418 2.90048,-0.0433 3.03045,0 0.71429,0.23809 1.30602,0.77206 2.02031,1.01015 0.60603,0.20201 4.2447,0 5.05076,0 0.33672,0 0.67344,0 1.01015,0 0.33672,0 0.70899,0.15059 1.01016,0 0.42591,-0.21296 0.58423,-0.79719 1.01015,-1.01015 0.1452,-0.0726 5.00488,-0.0153 5.05076,0 0.45175,0.15058 0.5584,0.85957 1.01015,1.01015 0.0477,0.0159 6.78924,0.0939 7.07107,0 0.45176,-0.15058 0.58424,-0.79719 1.01015,-1.01015 0.26561,-0.13281 3.51238,0 4.04061,0 9.42809,0 18.85618,0 28.28428,0 5.72419,0 11.44839,0 17.17259,0 0.87992,0 5.68807,0.18642 6.06091,0 0.42592,-0.21296 0.5584,-0.85957 1.01016,-1.01015 0.57881,-0.19294 4.10241,0 5.05076,0 3.36717,0 6.73435,0 10.10152,0 0.45493,0 2.72304,0.15371 3.03046,0 0.42592,-0.21296 0.58424,-0.7972 1.01015,-1.01016 0.30743,-0.15371 2.57553,0 3.03046,0 2.02031,0 4.04061,0 6.06092,0 3.03046,0 6.06091,0 9.09137,0 0.52823,0 3.775,0.13281 4.04061,0 0.42592,-0.21296 0.58424,-0.79719 1.01015,-1.01015 0.30743,-0.15371 2.57553,0 3.03046,0 2.02031,0 4.04061,0 6.06092,0 0.33671,0 0.77205,-0.23809 1.01015,0 0.23809,0.2381 0.23809,0.77206 0,1.01015 -0.78966,0.78967 -1.75731,-0.87865 -2.02031,-1.01015 -0.30117,-0.15058 -0.70898,0.15059 -1.01015,0 -0.85183,-0.42592 -1.16847,-1.59439 -2.0203,-2.0203 -0.30117,-0.15059 -0.70899,0.15058 -1.01016,0 -1.21218,-0.6061 -1.81827,-2.42437 -3.03045,-3.03046 -0.30117,-0.15059 -0.77206,0.23809 -1.01016,0 -0.23809,-0.2381 0.2381,-0.77206 0,-1.01015 -0.23809,-0.2381 -0.70898,0.15058 -1.01015,0 -0.85183,-0.42592 -1.16847,-1.59439 -2.0203,-2.02031 -0.30117,-0.15058 -1.01016,0.33672 -1.01016,0 0,-0.33672 0.67344,0 1.01016,0"
       style="fill:none;fill-rule:evenodd;stroke:#000000;stroke-width:1px;stroke-linecap:butt;stroke-linejoin:miter;stroke-opacity:1" />
    <path
       id="path4140"
       d="m 546.49253,1.8035577 c -3.18382,-2.46427097 -6.7636,-0.453832 -10.10153,-1.01015297 -1.05031,-0.175051 -1.97388,-0.878081 -3.03046,-1.010152 -1.67058,-0.208824 -3.36717,0 -5.05076,0 -2.0203,0 -4.04061,0 -6.06091,0 -7.40779,0 -14.81558,0 -22.22336,0 -2.35702,0 -4.71405,0 -7.07107,0 -1.01015,0 -2.0203,0 -3.03046,0 -0.67343,0 -1.38142,-0.212959 -2.0203,0 -0.45175,0.150584 -0.58424,0.797193 -1.01015,1.010152 -0.30117,0.150585 -0.69072,-0.106479 -1.01016,0 -0.71428,0.23809597 -1.30602,0.77205797 -2.0203,1.01015297 -0.31944,0.106479 -0.70898,-0.150585 -1.01015,0 -0.42592,0.212959 -0.58424,0.797194 -1.01016,1.010152 -0.30117,0.150585 -0.69071,-0.106479 -1.01015,0 -0.71428,0.238096 -1.30602,0.772058 -2.0203,1.010153 -0.31944,0.106479 -0.69072,-0.10648 -1.01016,0 -0.71428,0.238095 -1.39383,0.592506 -2.0203,1.010152 -0.39622,0.264143 -0.5584,0.859568 -1.01015,1.010153 -0.63888,0.212959 -1.36698,-0.163332 -2.02031,0 -4.87797,1.219493 0.0501,0.480044 -3.03046,2.020305 -0.95238,0.476191 -2.04182,0.614698 -3.03045,1.010153 -1.31473,-0.562131 -2.20353,1.6068413 -3.03046,2.0203053 -0.95238,0.47619 -2.04182,0.614698 -3.03046,1.010152 -0.69907,0.279629 -1.32123,0.730524 -2.0203,1.010153 -0.98864,0.395454 -2.07808,0.533962 -3.03046,1.010152 -1.08631,0.543153 -3.53881,2.65247 -5.05077,3.030458 -0.65332,0.163332 -1.38142,-0.212959 -2.0203,0 -1.42857,0.47619 -2.69374,1.34687 -4.04061,2.020305 -1.99417,0.997085 -4.14973,1.883745 -6.06092,3.030458 -1.04104,0.624624 -1.98941,1.39568 -3.03045,2.020305 -1.91119,1.146712 -4.06675,2.033373 -6.06092,3.030457 -0.67343,0.336718 -1.41797,0.558399 -2.0203,1.010153 -0.76191,0.571429 -1.2584,1.448877 -2.02031,2.020305 -0.60234,0.451754 -1.41797,0.558399 -2.0203,1.010153 -0.76191,0.571428 -1.2584,1.448876 -2.02031,2.020305 -0.60234,0.451754 -1.41797,0.558398 -2.0203,1.010152 -1.52381,1.142857 -2.55325,2.850715 -4.04061,4.04061 -0.94802,0.758413 -2.08245,1.261893 -3.03046,2.020306 -1.48737,1.189895 -2.55324,2.850714 -4.04061,4.04061 -0.94802,0.758412 -2.08244,1.261892 -3.03046,2.020305 -0.74368,0.594947 -1.2584,1.448876 -2.0203,2.020305 -0.60234,0.451754 -1.41797,0.558399 -2.02031,1.010152 -0.7619,0.571429 -1.34687,1.346871 -2.0203,2.020306 -0.67344,0.673435 -1.34688,1.34687 -2.02031,2.020305 -0.67344,0.673435 -1.44888,1.2584 -2.02031,2.020305 -0.45175,0.602338 -0.5925,1.393835 -1.01015,2.020305 -0.26414,0.396214 -0.74601,0.613938 -1.01015,1.010152 -1.12143,1.682144 -1.86014,4.500491 -3.03046,6.060916 -4.7579,6.343866 0.90341,-3.189273 -4.04061,5.050762 -1.50431,2.50719 -1.95726,5.398242 -3.03046,8.081221 -0.55925,1.398143 -1.24555,2.749357 -2.0203,4.04061 -0.62463,1.041041 -1.56942,1.903238 -2.02031,3.030458 -0.2501,0.62527 0.16334,1.36698 0,2.0203 -0.18261,0.73045 -0.73052,1.32124 -1.01015,2.02031 -0.39545,0.98864 -0.6147,2.04182 -1.01015,3.03046 -0.55926,1.39814 -1.54412,2.61204 -2.02031,4.04061 -0.43902,1.31708 -0.57112,2.72353 -1.01015,4.04061 -0.23809,0.714283 -0.67343,1.346873 -1.01015,2.020303 -0.90353,1.80706 -1.11678,2.23355 -2.02031,4.04061 -0.33671,0.67344 -0.82754,1.28987 -1.01015,2.02031 -0.16333,0.65333 0,1.34687 0,2.0203 -0.33672,0.67344 -0.82754,1.28987 -1.01015,2.02031 -0.16333,0.65333 0.21296,1.38143 0,2.0203 -0.15059,0.45176 -0.79719,0.58424 -1.01015,1.01016 -0.47619,0.95238 -0.6147,2.04182 -1.01016,3.03045 -0.27963,0.69908 -0.82754,1.28987 -1.01015,2.02031 -0.16333,0.65333 0,1.34687 0,2.0203 -0.33672,1.34687 -0.57113,2.72354 -1.01015,4.04061 -0.47619,1.42858 -1.72499,2.56401 -2.02031,4.04061 -0.1981,0.99054 0.19811,2.03993 0,3.03046 -0.14766,0.7383 -0.82754,1.28986 -1.01015,2.02031 -0.16333,0.65332 0.16333,1.36697 0,2.0203 -0.18261,0.73044 -0.77206,1.30602 -1.01015,2.02031 -0.10648,0.31944 0.10648,0.69071 0,1.01015 -0.2381,0.71429 -0.86249,1.282 -1.01015,2.0203 -0.19811,0.99054 0.1981,2.03993 0,3.03046 -0.14766,0.7383 -0.67344,1.34687 -1.01016,2.02031 0,1.01015 0.16607,2.03405 0,3.03045 -0.3501,2.10062 -1.60266,3.97269 -2.0203,6.06092 -0.13207,0.66036 0,1.34687 0,2.02031 0,1.34687 0,2.69374 0,4.04061 0,3.70389 0,7.40778 0,11.11167 0,5.05077 0,10.10153 0,15.15229 0,1.01015 0,2.02031 0,3.03046 0,1.01015 -0.14286,2.03046 0,3.03046 1.25529,8.78707 0.58118,-0.12456 2.0203,7.07106 0.13207,0.66036 -0.11071,1.35604 0,2.02031 0.22824,1.36943 0.78192,2.67118 1.01016,4.04061 0.11071,0.66427 -0.16334,1.36698 0,2.02031 0.36522,1.46088 1.54411,2.61203 2.0203,4.04061 0.10648,0.31943 -0.10648,0.69071 0,1.01015 1.2207,3.66209 0.47928,0.71892 2.02031,3.03046 0.41764,0.62647 0.5925,1.39383 1.01015,2.0203 0.79243,1.18864 2.17331,1.8876 3.03046,3.03046 0.45175,0.60234 0.67343,1.34687 1.01015,2.0203 0.67343,0.67344 1.42536,1.27662 2.0203,2.02031 1.51683,1.89603 2.58375,4.11843 4.04061,6.06091 0.28572,0.38096 0.71268,0.63831 1.01016,1.01016 1.05173,1.31466 1.97873,2.72595 3.03045,4.04061 1.43371,1.79212 3.40582,3.40581 5.05077,5.05076 0.33671,0.33672 0.74601,0.61394 1.01015,1.01015 0.41765,0.62647 0.59251,1.39384 1.01015,2.02031 0.26414,0.39621 0.67344,0.67343 1.01015,1.01015 0.67344,0.67343 1.34687,1.34687 2.02031,2.0203 0.67343,0.67344 1.34687,1.34687 2.0203,2.02031 0.33672,0.33672 0.61394,0.74601 1.01016,1.01015 0.62647,0.41765 1.39383,0.59251 2.0203,1.01015 0.79243,0.52829 1.34687,1.34687 2.02031,2.02031 1.68358,1.68359 3.36717,3.36717 5.05076,5.05076 1.01015,1.01015 1.8876,2.17332 3.03046,3.03046 0.97124,0.72843 2.05921,1.29187 3.03046,2.02031 0.38095,0.28571 0.67343,0.67343 1.01015,1.01015 5.40845,5.40845 -1.36784,-1.36784 4.04061,4.04061 0.33672,0.33672 0.61394,0.74601 1.01015,1.01015 0.62647,0.41765 1.41797,0.5584 2.02031,1.01015 1.14285,0.85715 1.84181,2.23803 3.03045,3.03046 0.62647,0.41765 1.37468,0.62278 2.02031,1.01015 11.16979,7.44653 -2.7147,-1.62882 5.05076,3.03046 10.26738,6.16043 -4.20646,-2.11982 6.06092,4.04061 4.41322,2.64793 -0.73121,-0.87068 5.05076,2.02031 1.08588,0.54294 1.91457,1.54206 3.03046,2.0203 1.27607,0.54689 2.76454,0.46327 4.04061,1.01015 1.11589,0.47824 2.0203,1.34687 3.03045,2.02031 1.34687,0.33672 2.72354,0.57113 4.04061,1.01015 0.71429,0.2381 1.32124,0.73053 2.02031,1.01015 0.98864,0.39546 2.07808,0.53397 3.03046,1.01016 1.08588,0.54294 1.98941,1.39568 3.03046,2.0203 1.85792,1.11476 2.88252,1.29756 5.05076,2.02031 1.01015,0.33671 1.98634,0.80133 3.03046,1.01015 0.66035,0.13207 1.36697,-0.16333 2.0203,0 6.59488,1.64872 -3.81653,0.54242 5.05076,2.0203 0.99641,0.16607 2.03405,-0.16606 3.03046,0 1.05031,0.17506 2.00663,0.71764 3.03046,1.01016 5.22086,1.49167 2.86035,0.52863 8.08122,2.0203 1.02382,0.29252 1.99102,0.77917 3.03046,1.01015 1.9994,0.44432 4.05251,0.60848 6.06091,1.01016 6.70319,1.34063 1.44638,0.84415 9.09137,2.0203 30.5775,4.70423 -18.39245,-3.05376 18.18275,1.01015 2.75966,0.30663 5.32602,1.67591 8.08122,2.02031 9.56821,1.19603 6.79726,-0.57951 16.16244,-2.02031 1.66401,-0.256 3.36718,0 5.05076,0 9.09138,0 18.18275,0 27.27412,0 4.37733,0 8.76578,0.31188 13.13199,0 2.04296,-0.14592 4.02115,-0.82472 6.06091,-1.01015 1.67668,-0.15242 3.37747,0.18592 5.05076,0 5.64884,-0.62765 2.28236,-1.06256 7.07107,-2.0203 0.66036,-0.13207 1.36698,0.16333 2.02031,0 1.82831,0.60884 1.8787,-1.63639 3.03045,-2.02031 0.63888,-0.21296 1.35995,0.13207 2.02031,0 1.04412,-0.20882 1.98634,-0.80133 3.03046,-1.01015 0.66035,-0.13207 1.35995,0.13207 2.0203,0 1.04412,-0.20882 1.97637,-0.85957 3.03046,-1.01015 1.33333,-0.19048 2.71207,0.22142 4.04061,0 0.74268,-0.12378 1.32123,-0.73053 2.02031,-1.01016 0.98863,-0.39545 1.99745,-0.7519 3.03045,-1.01015 1.66567,-0.41641 3.44316,-0.4073 5.05077,-1.01015 1.13675,-0.42628 1.98941,-1.39568 3.03045,-2.02031 0.64563,-0.38737 1.37468,-0.62277 2.02031,-1.01015 1.04104,-0.62462 1.98942,-1.39568 3.03046,-2.0203 0.64562,-0.38738 1.39383,-0.59251 2.0203,-1.01016 0.39622,-0.26414 0.58424,-0.79719 1.01015,-1.01015 0.95238,-0.47619 2.04182,-0.6147 3.03046,-1.01015 1.39814,-0.55926 2.64247,-1.46105 4.04061,-2.02031 0.98864,-0.39545 1.99746,-0.7519 3.03046,-1.01015 0.32666,-0.0817 0.72999,0.18678 1.01015,0 4.36921,-4.3692 -0.2676,-0.15832 4.04061,-3.03046 0.39622,-0.26414 0.67344,-0.67343 1.01015,-1.01015 2.37895,-2.37895 2.12917,-1.86502 4.04061,-5.05076 0.77476,-1.29125 1.07962,-2.86474 2.02031,-4.04061 0.89242,-1.11553 2.02031,-2.02031 3.03046,-3.03046 0.67343,-0.67343 1.27662,-1.42536 2.0203,-2.0203 0.94802,-0.75842 2.02031,-1.34687 3.03046,-2.02031 1.01015,-0.67343 1.98942,-1.39568 3.03046,-2.0203 0.64562,-0.38738 1.43237,-0.53981 2.0203,-1.01016 1.11553,-0.89242 2.02031,-2.0203 3.03046,-3.03046 1.01015,-1.01015 2.02031,-2.0203 3.03046,-3.03045 1.34687,-1.34687 2.85071,-2.55324 4.04061,-4.04061 0.75841,-0.94802 1.34687,-2.02031 2.0203,-3.03046 0.67344,-1.01015 1.39568,-1.98942 2.02031,-3.03046 1.16213,-1.93688 1.90979,-4.09975 3.03046,-6.06091 0.60233,-1.0541 1.39568,-1.98942 2.0203,-3.03046 0.38738,-0.64563 0.62278,-1.37468 1.01015,-2.02031 0.67344,-1.01015 1.34687,-2.0203 2.02031,-3.03045 0.67343,-0.67344 1.49202,-1.22788 2.0203,-2.02031 0.18678,-0.28016 -0.10648,-0.69071 0,-1.01015 0.2381,-0.71429 0.82755,-1.28986 1.01016,-2.02031 0.24499,-0.97999 0,-2.0203 0,-3.03045 0,-2.69374 0,-5.38748 0,-8.08122 0,-3.36718 0,-6.73435 0,-10.10153 0,-0.82701 0.21816,-4.39627 0,-5.05076 -0.47619,-1.42857 -1.65509,-2.57973 -2.02031,-4.04061 -0.32666,-1.30666 0.32667,-2.73396 0,-4.04061 -0.18261,-0.73045 -0.82754,-1.28987 -1.01015,-2.02031 -0.43847,-1.75387 0.43847,-4.30704 0,-6.06091 -0.18261,-0.73045 -0.86249,-1.28201 -1.01015,-2.02031 -0.19811,-0.99053 0.24499,-2.05046 0,-3.03046 -0.1155,-0.46197 -0.85957,-0.55839 -1.01016,-1.01015 -0.21295,-0.63888 0.16334,-1.36698 0,-2.0203 -0.18261,-0.73045 -0.77205,-1.30602 -1.01015,-2.02031 -0.10648,-0.31944 0.10648,-0.69071 0,-1.01015 -0.23809,-0.71429 -0.82754,-1.28986 -1.01015,-2.02031 -0.16333,-0.65332 0.13207,-1.35994 0,-2.0203 -0.20882,-1.04412 -0.80133,-1.98634 -1.01015,-3.03046 -0.13208,-0.66036 0.16333,-1.36698 0,-2.0203 -0.18261,-0.73045 -0.82755,-1.28987 -1.01016,-2.02031 -0.16333,-0.65333 0.16334,-1.36698 0,-2.0203 -0.18261,-0.73045 -0.73052,-1.32124 -1.01015,-2.02031 -0.39545,-0.98864 -0.7519,-1.99746 -1.01015,-3.03046 -0.31587,-1.26346 0.41224,-2.80388 0,-4.04061 -0.15059,-0.45175 -0.7972,-0.58423 -1.01015,-1.01015 -0.3212,-0.6424 0.27887,-4.21413 0,-5.05076 -0.15059,-0.45176 -0.89466,-0.54818 -1.01016,-1.01016 -0.24499,-0.97999 0.16607,-2.03404 0,-3.03045 -0.17505,-1.05031 -0.80133,-1.98634 -1.01015,-3.03046 -0.13207,-0.66036 0.13207,-1.35995 0,-2.02031 -0.20882,-1.04411 -0.67343,-2.0203 -1.01015,-3.03045 -0.67074,-2.01223 -1.34956,-4.04869 -2.02031,-6.06092 -0.33671,-1.01015 -0.80133,-1.98634 -1.01015,-3.03046 -0.13207,-0.66035 0.13207,-1.35994 0,-2.0203 -0.20882,-1.04412 -0.67343,-2.02031 -1.01015,-3.03046 -0.33672,-1.01015 -0.6147,-2.04182 -1.01015,-3.03046 -0.27963,-0.69907 -0.82755,-1.28986 -1.01016,-2.0203 -0.16333,-0.65333 0.21296,-1.38143 0,-2.02031 -0.47619,-1.42857 -1.54411,-2.61204 -2.0203,-4.04061 -0.21296,-0.63887 0.16333,-1.36697 0,-2.0203 -0.18261,-0.73044 -0.67344,-1.34687 -1.01015,-2.02031 -0.67344,-1.34687 -1.34687,-2.69374 -2.02031,-4.04061 -0.67343,-1.34687 -1.24555,-2.749353 -2.0203,-4.040613 -0.62463,-1.04104 -1.39568,-1.98941 -2.02031,-3.03045 -0.77475,-1.29126 -1.1168,-2.83594 -2.0203,-4.04062 -0.57143,-0.7619 -1.44888,-1.2584 -2.02031,-2.0203 -0.45175,-0.60234 -0.59251,-1.39384 -1.01015,-2.02031 -0.26415,-0.39621 -0.85957,-0.55839 -1.01015,-1.01015 -0.21296,-0.63887 0.21295,-1.38143 0,-2.0203 -0.30117,-0.903511 -1.49202,-1.227879 -2.02031,-2.020308 -3.6621,-7.324193 1.06479,1.597188 -2.02031,-3.030458 -0.41764,-0.62647 -0.47775,-1.487908 -1.01015,-2.020305 -0.53239,-0.532397 -1.41796,-0.558398 -2.0203,-1.010152 -1.88562,-1.414214 -3.16515,-3.63655 -5.05077,-5.050763 -0.60233,-0.451754 -1.39383,-0.592506 -2.0203,-1.010153 -0.39622,-0.264143 -0.67344,-0.673435 -1.01015,-1.010152 -1.01016,-1.010153 -2.02031,-2.020305 -3.03046,-3.030458 -2.35702,-2.357022 -4.71405,-4.714045 -7.07107,-7.071068 -1.68359,-1.683587 -3.36717,-3.367175 -5.05076,-5.050762 -1.01015,-1.010153 -1.94581,-2.100756 -3.03046,-3.030458 -9.95317,-8.53129 0.92346,1.344856 -7.07107,-5.050763 -1.85921,-1.487369 -3.22166,-3.526514 -5.05076,-5.050762 -0.93266,-0.777218 -2.05922,-1.291874 -3.03046,-2.020306 -0.38095,-0.285714 -0.67343,-0.673435 -1.01015,-1.010152 -1.01015,-1.010153 -2.0203,-2.020305 -3.03046,-3.030458 -1.01015,-1.010152 -2.17331,-1.8876 -3.03045,-3.030457 -0.72844,-0.971242 -1.2619,-2.082442 -2.02031,-3.030458 -1.26886,-1.58607 -3.60032,-3.600325 -5.05076,-5.050763 -0.67344,-0.673435 -1.34687,-1.34687 -2.02031,-2.020305 -0.33672,-0.336717 -0.61394,-0.746009 -1.01015,-1.010152 -0.62647,-0.417647 -1.39384,-0.592506 -2.02031,-1.010153 -0.79242,-0.528286 -1.22787,-1.492019 -2.0203,-2.020305 -0.62647,-0.417647 -1.39384,-0.592506 -2.02031,-1.010153 -0.39621,-0.264142 -0.58423,-0.797193 -1.01015,-1.010152 -0.30117,-0.150585 -0.70898,0.150585 -1.01015,0 -0.42592,-0.212959 -0.61394,-0.74601 -1.01015,-1.010153 -0.62647,-0.417646 -1.39384,-0.592505 -2.02031,-1.010152 -0.39621,-0.264143 -0.5584,-0.859568 -1.01015,-1.010153 -0.63888,-0.212959 -1.38143,0.212959 -2.02031,0 -0.45175,-0.150584 -0.67343,-0.673435 -1.01015,-1.010152 -0.67343,-0.336718 -1.282,-0.862492 -2.0203,-1.0101533 -0.99054,-0.198107 -2.03993,0.1981073 -3.03046,0 -0.7383,-0.14766 -1.28986,-0.827542 -2.02031,-1.010152 -0.65332,-0.163332 -1.36697,0.163332 -2.0203,0 -0.73044,-0.182611 -1.30602,-0.772058 -2.02031,-1.010153 -0.31943,-0.106479 -0.69071,0.10648 -1.01015,0 -0.71428,-0.238095 -1.30602,-0.772057 -2.0203,-1.010152 -0.95832,-0.319439 -2.05047,0.244998 -3.03046,0 -0.73044,-0.182611 -1.28986,-0.827542 -2.02031,-1.010153 -0.65332,-0.163332 -1.34687,0 -2.0203,0 -0.67344,-0.336718 -1.30602,-0.772057 -2.02031,-1.010153 -0.31944,-0.106479 -0.70898,0.150585 -1.01015,0 -0.42592,-0.212958 -0.58423,-0.797193 -1.01015,-1.010152 -0.26561,-0.132806 -3.51238,0 -4.04061,0 -2.35703,0 -4.71405,0 -7.07107,0 -1.01015,0 -2.03405,0.166068 -3.03046,0 -1.0503,-0.175051 -1.98634,-0.801329 -3.03046,-1.010153 -0.66035,-0.132071 -1.35363,0.09524 -2.0203,0 -1.69967,-0.24281 -3.33383,-1.010152 -5.05076,-1.010152 -1.0648,0 -1.98015,0.835101 -3.03046,1.010152 -0.99641,0.166068 -2.02031,0 -3.03046,0 -1.01015,0 -2.0203,0 -3.03046,0 -2.69374,0 -5.38748,0 -8.08122,0"
       style="fill:none;fill-rule:evenodd;stroke:#000000;stroke-width:1px;stroke-linecap:butt;stroke-linejoin:miter;stroke-opacity:1" />
    <path
       id="path4142"
       d="m 139.40105,148.27568 c -1.68359,-0.33672 -3.33383,-1.01016 -5.05076,-1.01016 -1.0648,0 -1.98634,0.80133 -3.03046,1.01016 -0.66036,0.13207 -1.34687,0 -2.0203,0 -1.68359,0 -3.36718,0 -5.05077,0 -0.67343,0 -1.35994,-0.13207 -2.0203,0 -1.04412,0.20882 -1.98634,0.80133 -3.03046,1.01015 -1.32071,0.26414 -2.7199,-0.26414 -4.04061,0 -1.04412,0.20882 -1.98634,0.80133 -3.03046,1.01015 -0.66035,0.13207 -1.36697,-0.16333 -2.0203,0 -0.73045,0.18261 -1.27763,0.88637 -2.02031,1.01015 -1.32854,0.22143 -2.71206,-0.22142 -4.04061,0 -0.74268,0.12378 -1.28986,0.82755 -2.0203,1.01016 -0.65333,0.16333 -1.35995,-0.13207 -2.02031,0 -2.088231,0.41764 -3.9603,1.6702 -6.060913,2.0203 -0.996409,0.16607 -2.030458,-0.14286 -3.030458,0 -1.374368,0.19634 -2.671178,0.78192 -4.04061,1.01015 -7.497637,1.24961 7.062732,-2.73946 -6.060915,1.01016 -10.463935,3.48798 4.177214,-1.03748 -6.060916,1.01015 -1.476604,0.29532 -2.579724,1.65508 -4.04061,2.0203 -1.306656,0.32667 -2.712066,-0.22142 -4.04061,0 -1.369432,0.22824 -2.705705,0.62876 -4.04061,1.01016 -1.023825,0.29252 -1.980151,0.8351 -3.030458,1.01015 -0.996408,0.16607 -2.030457,-0.14286 -3.030457,0 -1.374369,0.19634 -2.693741,0.67343 -4.040611,1.01015 -1.34687,0.33672 -2.705705,0.62875 -4.04061,1.01015 -1.023825,0.29253 -1.976365,0.85957 -3.030457,1.01016 -1.333334,0.19047 -2.707277,-0.19048 -4.040611,0 -1.054092,0.15058 -1.986341,0.80133 -3.030457,1.01015 -0.660358,0.13207 -1.356033,-0.11071 -2.020305,0 -2.56564,-0.86232 -3.994911,1.5038 -6.060916,2.0203 -0.653328,0.16334 -1.359947,-0.13207 -2.020305,0 -1.044116,0.20883 -1.986341,0.80133 -3.030457,1.01016 -1.320715,0.26414 -2.719896,-0.26415 -4.040611,0 -1.044116,0.20882 -1.98634,0.80133 -3.030457,1.01015 -0.660358,0.13207 -1.366977,-0.16333 -2.020305,0 -0.730443,0.18261 -1.289863,0.82754 -2.020305,1.01015 -0.653328,0.16333 -1.366978,-0.16333 -2.020305,0 -0.730443,0.18261 -1.30602,0.77206 -2.020306,1.01016 -0.6948151,0.2316 -2.4344468,-0.29801 -3.0304572,0 -0.4259177,0.21295 -0.5842348,0.79719 -1.0101525,1.01015 -0.3011693,0.15058 -0.6734351,0 -1.0101526,0 -0.3367175,0.33672 -0.5842348,0.79719 -1.0101525,1.01015 -0.3011693,0.15058 -0.7089833,-0.15058 -1.0101526,0 -0.4259177,0.21296 -0.673435,0.67344 -1.0101525,1.01015 -0.5941152,0.59412 -3.5728301,3.80672 -4.0406102,4.04061 -0.3011693,0.15059 -0.7089832,-0.15058 -1.0101525,0 -0.4259177,0.21296 -0.6734351,0.67344 -1.0101526,1.01016 -0.3367175,0.33671 -0.673435,0.67343 -1.0101525,1.01015 -1.3468701,1.34687 -2.6937401,2.69374 -4.0406102,4.04061 -0.5318094,0.53181 -2.7607041,2.49095 -3.0304581,3.03046 -0.150584,0.30117 0.150585,0.70898 0,1.01015 -0.425917,0.85183 -1.594387,1.16847 -2.020305,2.0203 -0.150584,0.30117 0.150585,0.70899 0,1.01016 -0.212958,0.42591 -0.797193,0.58423 -1.010152,1.01015 -0.05637,0.11275 -0.05637,4.93801 0,5.05076 0.425918,0.85184 1.594387,1.16847 2.020305,2.02031 0.150585,0.30117 -0.150585,0.70898 0,1.01015 0.134103,0.26821 2.762251,2.89635 3.030458,3.03046 0.3011688,0.15058 0.7089828,-0.15059 1.0101521,0 0.4259177,0.21296 0.5842348,0.79719 1.0101525,1.01015 0.3011693,0.15058 0.7089833,-0.15059 1.0101526,0 0.4259177,0.21296 0.5842348,0.79719 1.0101525,1.01015 0.3011693,0.15059 0.7089833,-0.15058 1.0101526,0 0.8518354,0.42592 1.1684696,1.59439 2.0203051,2.02031 0.6023386,0.30117 1.4179665,-0.30117 2.0203051,0 0.42591766,0.21296 0.58423479,0.79719 1.0101525,1.01015 0.3011693,0.15058 0.70898324,-0.15059 1.0101525,0 0.4259178,0.21296 0.5842349,0.79719 1.0101526,1.01015 0.3011693,0.15059 0.673435,0 1.0101525,0 2.2821733,0 -0.4517539,0.15059 3.0304577,-1.01015 0.6388765,-0.21296 1.3814285,0.21296 2.0203051,0 0.7142857,-0.2381 1.2898622,-0.82754 2.0203046,-1.01015 1.306656,-0.32667 2.719896,0.26414 4.040611,0 1.044116,-0.20883 1.986341,-0.80133 3.030457,-1.01016 1.287585,-0.25751 5.037127,0.34127 6.060916,0 0.451753,-0.15058 0.584234,-0.79719 1.010152,-1.01015 0.645509,-0.32275 3.227539,0.27103 4.04061,0 0.714286,-0.23809 1.30602,-0.77206 2.020305,-1.01015 0.319439,-0.10648 0.690715,0.10648 1.010153,0 0.714286,-0.2381 1.289862,-0.82754 2.020305,-1.01015 0.653328,-0.16334 1.34687,0 2.020305,0 1.010153,-0.33672 1.997456,-0.75191 3.030458,-1.01016 2.020305,-0.50507 0,1.01016 3.030457,0 0.451754,-0.15058 0.584235,-0.79719 1.010153,-1.01015 0.808122,-0.40406 2.222336,0.40406 3.030458,0 0.425917,-0.21296 0.584234,-0.79719 1.010152,-1.01015 0.634903,-0.31745 3.405707,0.31745 4.04061,0 0.425918,-0.21296 0.558399,-0.85957 1.010153,-1.01015 0.638876,-0.21296 1.34687,0 2.020305,0 0.336717,0 0.708983,0.15058 1.010152,0 0.425918,-0.21296 0.584235,-0.7972 1.010153,-1.01016 0.365305,-0.18265 4.348161,0 5.050763,0 2.80127,0 -1.612491,0.15059 3.030457,-1.01015 0.707754,-0.17694 5.695159,0 6.060916,0 0.336717,0 0.690714,0.10648 1.010152,0 0.714286,-0.23809 1.34687,-0.67343 2.020305,-1.01015 1.010153,0 2.039922,0.19811 3.030458,0 0.738302,-0.14766 1.282003,-0.86249 2.020305,-1.01015 0.990536,-0.19811 2.034049,0.16606 3.030458,0 1.050306,-0.17505 1.980151,-0.83511 3.030457,-1.01016 0.996409,-0.16606 2.03405,0.16607 3.030458,0 1.050307,-0.17505 2.020305,-0.67343 3.030458,-1.01015 1.34687,-0.33672 2.666241,-0.81381 4.04061,-1.01015 1,-0.14286 2.020305,0 3.030457,0 1.010153,-0.33672 1.980151,-0.8351 3.030456,-1.01015 0.99641,-0.16607 2.03405,0.16606 3.03046,0 2.10061,-0.35011 3.95273,-1.71914 6.06091,-2.02031 1.33334,-0.19048 2.70728,0.19048 4.04062,0 1.05409,-0.15058 1.98634,-0.80133 3.03045,-1.01015 0.66036,-0.13207 1.34687,0 2.02031,0 1.01015,-0.33672 1.99745,-0.7519 3.03046,-1.01015 0.65332,-0.16334 1.38142,0.21295 2.0203,0 0.71429,-0.2381 1.28986,-0.82755 2.02031,-1.01016 0.89117,-0.22279 3.17525,0.28845 4.04061,0 0.71428,-0.23809 1.30602,-0.77205 2.0203,-1.01015 0.96794,-0.32265 4.11495,0.31194 5.05076,0 0.45176,-0.15058 0.5584,-0.85957 1.01016,-1.01015 0.63887,-0.21296 1.38142,0.21296 2.0203,0 0.45176,-0.15059 0.58424,-0.7972 1.01015,-1.01015 0.30117,-0.15059 0.70899,0.15058 1.01016,0 0.42591,-0.21296 0.58423,-0.7972 1.01015,-1.01016 0.30117,-0.15058 0.70898,0.15059 1.01015,0 0.42592,-0.21296 0.61394,-0.74601 1.01015,-1.01015 5.1031,-3.40206 0.0234,-0.008 3.03046,-1.01015 0.71429,-0.2381 1.34687,-0.67344 2.02031,-1.01015 1.34687,-0.67344 2.69374,-1.34687 4.04061,-2.02031 0.67343,-0.33672 1.30602,-0.77206 2.0203,-1.01015 0.31944,-0.10648 0.69072,0.10648 1.01015,0 0.71429,-0.2381 1.28987,-0.82754 2.02031,-1.01015 0.65333,-0.16334 1.38143,0.21295 2.0203,0 0.45176,-0.15059 0.61394,-0.74601 1.01016,-1.01016 0.5087,-2.22553 2.07807,-0.53396 3.03045,-1.01015 0.42592,-0.21296 0.58424,-0.79719 1.01016,-1.01015 0.30117,-0.15059 0.70898,0.15058 1.01015,0 1.21218,-0.60609 1.81827,-2.42437 3.03046,-3.03046 0.30117,-0.15058 0.70898,0.15058 1.01015,0 3.08052,-1.54026 -1.84751,-0.80081 3.03046,-2.02031 0.65333,-0.16333 1.36697,0.16334 2.0203,0 2.19028,-0.54756 2.86049,-2.48288 5.05077,-3.03045 0.65332,-0.16333 1.38142,0.21296 2.0203,0 0.90351,-0.30117 1.16847,-1.59439 2.02031,-2.02031 0.30117,-0.15058 0.70898,0.15059 1.01015,0 0.85183,-0.42592 1.16847,-1.59439 2.0203,-2.0203 0.30117,-0.15059 0.70899,0.15058 1.01016,0 0.42591,-0.21296 0.58423,-0.7972 1.01015,-1.01016 0.30117,-0.15058 0.70898,0.15059 1.01015,0 2.29925,-2.29925 -0.20921,-0.26698 2.02031,-1.01015 1.83466,-0.61155 1.87469,-0.86454 3.03045,-2.0203 0.33672,-0.33672 0.58424,-0.7972 1.01016,-1.01016 0.30117,-0.15058 0.70898,0.15059 1.01015,0 0.42592,-0.21295 0.58423,-0.79719 1.01015,-1.01015 0.30117,-0.15058 0.70898,0.15059 1.01015,0 0.42592,-0.21296 0.58424,-0.79719 1.01016,-1.01015 0.30117,-0.15059 0.70898,0.15058 1.01015,0 0.85183,-0.42592 1.16847,-1.59439 2.0203,-2.02031 0.30117,-0.15058 0.70899,0.15059 1.01016,0 0.42591,-0.21295 0.61393,-0.74601 1.01015,-1.01015 0.62647,-0.41764 1.39383,-0.5925 2.0203,-1.01015 0.39622,-0.26414 0.58424,-0.79719 1.01016,-1.01015 0.30117,-0.15059 0.72998,0.18677 1.01015,0 1.48641,-0.99095 2.5542,-3.04967 4.04061,-4.04061 0.62647,-0.41765 1.39383,-0.59251 2.0203,-1.01016 0.79243,-0.52828 1.22788,-1.49202 2.02031,-2.0203 0.62647,-0.41765 1.39383,-0.59251 2.0203,-1.01015 1.18865,-0.79243 1.88761,-2.17332 3.03046,-3.03046 0.60234,-0.45176 1.39384,-0.59251 2.02031,-1.01015 0.39621,-0.26415 0.67343,-0.67344 1.01015,-1.01016 0.67344,-0.67343 1.44888,-1.2584 2.02031,-2.0203 0.45175,-0.60234 0.55839,-1.41797 1.01015,-2.02031 0.57143,-0.7619 1.44887,-1.2584 2.0203,-2.0203 1.17032,-1.56043 1.90903,-4.37877 3.03046,-6.06092 0.26414,-0.39621 0.74601,-0.61394 1.01015,-1.01015 0.8353,-1.25294 1.1168,-2.83593 2.02031,-4.04061 0.57143,-0.7619 1.49202,-1.22788 2.0203,-2.0203 0.18678,-0.28017 -0.15058,-0.70899 0,-1.01016 0.21296,-0.42592 0.74601,-0.61394 1.01016,-1.01015 0.33671,-0.67343 0.67343,-1.34687 1.01015,-2.0203 0,-0.33672 -0.15059,-0.70899 0,-1.01016 0.21296,-0.42592 0.79719,-0.58423 1.01015,-1.01015 0.15059,-0.30117 0,-0.67344 0,-1.01015 0,-0.33672 0,-0.67344 0,-1.01016 0,-2.0203 0,-4.04061 0,-6.06091 0,-0.7026 0.18265,-4.685458 0,-5.050763 -0.42592,-0.851836 -1.59439,-1.16847 -2.0203,-2.020305 -0.15059,-0.30117 0.15058,-0.708984 0,-1.010153 -0.21296,-0.425918 -0.74601,-0.613938 -1.01016,-1.010152 -0.41764,-0.62647 -0.5925,-1.393835 -1.01015,-2.020305 -0.28544,-0.428167 -2.61251,-2.821483 -3.03046,-3.030458 -0.30117,-0.150585 -0.70898,0.150585 -1.01015,0 -0.42592,-0.212959 -0.58423,-0.797194 -1.01015,-1.010153 -0.30117,-0.150584 -0.67344,0 -1.01015,0 -0.67344,0 -1.34687,0 -2.02031,0 -1.68359,0 -3.36717,0 -5.05076,0 -0.33672,0 -0.67344,0 -1.01015,0 -0.33672,0 -0.70899,-0.150584 -1.01016,0 -0.42592,0.212959 -0.61394,0.74601 -1.01015,1.010153 -0.62647,0.417647 -1.39384,0.592506 -2.02031,1.010152 -1.18864,0.792429 -1.8876,2.173315 -3.03045,3.030458 -0.60234,0.451754 -1.39384,0.592506 -2.02031,1.010153 -0.39621,0.264143 -0.67343,0.673435 -1.01015,1.010152 -0.67344,0.673435 -1.34687,1.34687 -2.02031,2.020305 -1.01015,1.010153 -2.17331,1.887601 -3.03045,3.030458 -0.45176,0.602339 -0.59251,1.393838 -1.01016,2.020308 -0.52828,0.79243 -1.49201,1.22787 -2.0203,2.0203 -0.41765,0.62647 -0.59251,1.39384 -1.01015,2.02031 -0.32888,0.49331 -3.5473,3.71173 -4.04061,4.04061 -0.62647,0.41764 -1.39384,0.5925 -2.02031,1.01015 -1.48641,0.99094 -2.5542,3.04967 -4.04061,4.04061 -0.62647,0.41765 -1.41797,0.5584 -2.0203,1.01015 -1.14286,0.85715 -1.84182,2.23803 -3.03046,3.03046 -0.62647,0.41765 -1.39384,0.59251 -2.02031,1.01015 -1.16556,0.77704 -1.86489,2.25342 -3.03045,3.03046 -0.62647,0.41765 -1.39384,0.59251 -2.02031,1.01015 -0.39621,0.26415 -0.58423,0.7972 -1.01015,1.01016 -0.30117,0.15058 -0.70899,-0.15059 -1.01015,0 -0.85184,0.42591 -1.22788,1.49201 -2.02031,2.0203 -0.62647,0.41765 -1.39383,0.59251 -2.0203,1.01015 -0.87167,0.58111 -2.24145,2.24144 -3.03046,3.03046 -1.01015,1.01015 -2.02031,2.02031 -3.03046,3.03046 -0.33672,0.33672 -0.61394,0.74601 -1.01015,1.01015 -0.62647,0.41765 -1.39384,0.59251 -2.02031,1.01015 -0.79243,0.52829 -1.22787,1.49202 -2.0203,2.02031 -1.25294,0.83529 -2.78767,1.18501 -4.04061,2.0203 -2.31154,1.54103 0.63164,0.79961 -3.03046,2.02031 -0.31944,0.10648 -0.70898,-0.15059 -1.01015,0 -4.62307,2.31153 4.2865,-0.41868 -3.03046,2.0203 -0.31944,0.10648 -0.69071,-0.10648 -1.01015,0 -0.71429,0.2381 -1.30602,0.77206 -2.02031,1.01016 -0.31944,0.10648 -0.70898,-0.15059 -1.01015,0 -4.62307,2.31153 4.2865,-0.41868 -3.03046,2.0203 -0.31944,0.10648 -0.69071,-0.10648 -1.01015,0 -0.71429,0.2381 -1.30602,0.77206 -2.02031,1.01015 -0.31943,0.10648 -0.67997,-0.066 -1.01015,0 -9.44749,1.8895 0.63108,0.0948 -7.07107,2.02031 -0.32666,0.0817 -0.70898,-0.15059 -1.01015,0 -0.42592,0.21296 -0.5584,0.85957 -1.01015,1.01015 -0.55863,0.18621 -5.04364,0 -6.06092,0"
       style="fill:none;fill-rule:evenodd;stroke:#000000;stroke-width:1px;stroke-linecap:butt;stroke-linejoin:miter;stroke-opacity:1" />
    <path
       id="path4144"
       d="m 39.395949,180.60056 c 2.357023,2.35702 4.714045,4.71404 7.071068,7.07107 0.336718,0.33671 0.797194,0.58423 1.010153,1.01015 0.150584,0.30117 -0.238096,0.77206 0,1.01015 0.238095,0.2381 0.708983,-0.15058 1.010152,0 0.539506,0.26975 2.498648,2.49865 3.030458,3.03046 1.010152,1.01015 2.020305,2.0203 3.030457,3.03046 0.336718,0.33671 0.613939,0.74601 1.010153,1.01015 0.62647,0.41765 1.393835,0.5925 2.020305,1.01015 0.792429,0.52829 1.227876,1.49202 2.020305,2.02031 0.62647,0.41764 1.30602,0.77205 2.020305,1.01015 0.319439,0.10648 0.729987,-0.18678 1.010153,0 0.792429,0.52828 1.227876,1.49202 2.020305,2.0203 0.280166,0.18678 0.708983,-0.15058 1.010152,0 2.299251,2.29926 -0.209209,0.26699 2.020306,1.01016 7.316955,2.43898 -1.592614,-0.29123 3.030457,2.0203 0.301169,0.15059 0.708983,-0.15058 1.010153,0 0.425917,0.21296 0.584235,0.7972 1.010152,1.01015 0.30117,0.15059 0.690715,-0.10648 1.010153,0 5.723207,2.86161 -1.505847,-0.37646 4.04061,1.01016 0.730443,0.18261 1.289862,0.82754 2.020305,1.01015 0.653328,0.16333 1.359948,-0.13207 2.020305,0 1.044117,0.20882 1.997456,0.7519 3.030458,1.01015 0.950732,0.23768 2.079726,-0.23768 3.030457,0 0.730443,0.18261 1.30602,0.77206 2.020306,1.01015 0.319438,0.10648 0.673435,0 1.010152,0 1.017277,0 5.502283,-0.18621 6.060915,0 0.451754,0.15059 0.558399,0.85957 1.010153,1.01016 0.958315,0.31944 2.020303,0 3.030453,0 0.39933,0 4.61935,-0.21571 5.05077,0 0.42591,0.21296 0.58423,0.79719 1.01015,1.01015 0.30117,0.15058 0.67343,0 1.01015,0 0.67344,0 1.38143,-0.21296 2.02031,0 0.45175,0.15058 0.5584,0.85957 1.01015,1.01015 0.63888,0.21296 1.36698,-0.16333 2.02031,0 0.73044,0.18261 1.30601,0.77206 2.0203,1.01015 1.0734,0.3578 2.96721,-0.3578 4.04061,0 0.45175,0.15059 0.58424,0.7972 1.01015,1.01016 0.80812,0.40406 2.22234,-0.40406 3.03046,0 0.42592,0.21296 0.58424,0.79719 1.01015,1.01015 0.55244,0.27622 2.34301,-0.17186 3.03046,0 10.46394,3.48798 -4.17721,-1.03747 6.06092,1.01015 0.7383,0.14766 1.28986,0.82754 2.0203,1.01015 0.65333,0.16334 1.34687,0 2.02031,0 0.67343,0 1.34687,0 2.0203,0 1.01015,0 2.07214,-0.31943 3.03046,0 0.45175,0.15059 0.58423,0.7972 1.01015,1.01016 0.30117,0.15058 0.67344,0 1.01015,0 0.33672,0 0.67344,0 1.01016,0 0.33671,0 1.01015,0.33671 1.01015,0 0,-0.47619 -0.67344,-0.67344 -1.01015,-1.01016 -0.33672,-0.33671 -0.67344,-0.67343 -1.01016,-1.01015 -0.33671,-0.33672 -0.58423,-0.79719 -1.01015,-1.01015 -0.30117,-0.15058 -0.77206,0.23809 -1.01015,0 -0.2381,-0.2381 0.15058,-0.70898 0,-1.01015 -0.1341,-0.26821 -2.76225,-2.89636 -3.03046,-3.03046 -0.30117,-0.15059 -0.77206,0.23809 -1.01015,0 -0.2381,-0.2381 0.23809,-0.77206 0,-1.01015 -0.2381,-0.2381 -0.77206,0.23809 -1.01015,0 -0.2381,-0.2381 0.15058,-0.70899 0,-1.01016 -2.10201,-4.20401 0.0697,1.07989 -2.02031,-1.01015 -0.23809,-0.23809 0.15059,-0.70898 0,-1.01015 -0.21296,-0.42592 -0.67343,-0.67344 -1.01015,-1.01015 -1.34687,-1.34687 -2.69374,-2.69374 -4.04061,-4.04061 -0.33672,-0.33672 -0.67344,-0.67344 -1.01015,-1.01016 -0.33672,-0.33671 -0.7972,-0.58423 -1.01016,-1.01015 -0.15058,-0.30117 0.2381,-0.77206 0,-1.01015 -0.23809,-0.2381 -0.77205,0.23809 -1.01015,0 -0.23809,-0.2381 0.15059,-0.70898 0,-1.01015 -0.21296,-0.42592 -0.79719,-0.58424 -1.01015,-1.01016 -0.15059,-0.30117 0.23809,-0.77205 0,-1.01015 -0.2381,-0.23809 -0.77206,0.2381 -1.01015,0 -0.2381,-0.23809 0.15058,-0.70898 0,-1.01015 -0.6061,-1.21218 -2.42437,-1.81828 -3.03046,-3.03046 -0.15059,-0.30117 0.15058,-0.70898 0,-1.01015 -0.23389,-0.46778 -3.4465,-3.4465 -4.04061,-4.04061 -2.31612,-2.31611 0.42592,0.63888 -2.02031,-3.03046 -0.52828,-0.79243 -1.59438,-1.16847 -2.0203,-2.0203 -0.15059,-0.30117 0.15058,-0.70899 0,-1.01016 -0.42592,-0.85183 -1.59439,-1.16847 -2.02031,-2.0203 -0.15058,-0.30117 0.15059,-0.70899 0,-1.01015 -0.21296,-0.42592 -0.79719,-0.58424 -1.01015,-1.01016 -0.15058,-0.30117 0.15058,-0.70898 0,-1.01015 -0.21296,-0.42592 -0.79719,-0.58423 -1.01015,-1.01015 -0.15059,-0.30117 0,-0.67344 0,-1.01015 -0.33672,-0.33672 -0.7972,-0.58424 -1.01016,-1.01016 -0.30116,-0.60234 0.30117,-1.41796 0,-2.0203 -0.21295,-0.42592 -0.79719,-0.58424 -1.01015,-1.01015 -0.15058,-0.30117 0.15059,-0.70899 0,-1.01016 -0.21296,-0.42592 -0.79719,-0.58423 -1.01015,-1.01015 -0.15058,-0.30117 0.2381,-0.77206 0,-1.01015 -0.2381,-0.2381 -0.67344,0 -1.01015,0 -2.02031,0 -4.04061,0 -6.06092,0 -2.801269,0 1.61249,-0.15059 -3.030456,1.01015 -0.744379,0.18609 -4.458939,-0.29591 -5.050762,0 -0.425918,0.21296 -0.584235,0.79719 -1.010153,1.01015 -0.307424,0.15371 -2.575528,0 -3.030458,0 -2.357022,0 -4.714045,0 -7.071067,0 -0.697533,0 -3.733488,-0.15356 -4.040611,0 -0.425917,0.21296 -0.584234,0.7972 -1.010152,1.01016 -0.301169,0.15058 -0.673435,0 -1.010153,0 -0.673435,0 -1.34687,0 -2.020305,0 -2.020305,0 -4.04061,0 -6.060915,0 -3.030458,0 -6.060915,0 -9.091373,0 -0.528229,0 -3.774999,-0.13281 -4.04061,0 -0.425918,0.21295 -0.584235,0.79719 -1.010153,1.01015 -0.808122,0.40406 -2.222335,-0.40406 -3.030457,0 -0.425918,0.21296 -0.584235,0.79719 -1.010153,1.01015 -0.808122,0.40406 -2.222335,-0.40406 -3.030457,0 -0.425918,0.21296 -0.584235,0.79719 -1.010153,1.01015 -0.602339,0.30117 -1.417966,-0.30117 -2.020305,0 -0.425918,0.21296 -0.584235,0.7972 -1.010153,1.01016 -0.866919,0.43346 -1.648054,-0.8511 -2.020305,1.01015 -0.264143,1.32071 0,2.69374 0,4.04061 z"
       style="fill:none;fill-rule:evenodd;stroke:#000000;stroke-width:1px;stroke-linecap:butt;stroke-linejoin:miter;stroke-opacity:1" />
    <path
       id="path4146"
       d="m 40.406102,158.3772 c 0.864506,-1.20576 -0.429647,-5.35248 0,-7.07107 0.182611,-0.73044 0.827542,-1.28986 1.010152,-2.0203 0.332041,-1.32816 -0.418185,-3.79621 0,-5.05076 0.150585,-0.45176 0.797194,-0.58424 1.010153,-1.01016 0.318637,-0.63727 -0.318637,-4.41348 0,-5.05076 0.212959,-0.42592 0.797194,-0.58423 1.010152,-1.01015 0.267071,-0.53414 -0.123034,-3.54847 0,-4.04061 1.219493,-4.87797 0.480045,0.0501 2.020306,-3.03046 0.150584,-0.30117 -0.150585,-0.70898 0,-1.01015 0.212958,-0.42592 0.797193,-0.58424 1.010152,-1.01015 0.150585,-0.30117 -0.150585,-0.70899 0,-1.01016 0.212959,-0.42591 0.797194,-0.58423 1.010153,-1.01015 0.150584,-0.30117 -0.238096,-0.77206 0,-1.01015 0.238095,-0.2381 0.708983,0.15058 1.010152,0 0.425918,-0.21296 0.673435,-0.67344 1.010153,-1.01015 0.336717,-0.33672 0.746009,-0.61394 1.010152,-1.01016 0.642141,-0.96321 1.378165,-3.0774 2.020305,-4.04061 0.264143,-0.39621 0.673435,-0.67343 1.010153,-1.01015 0.673435,-0.67343 1.227876,-1.49202 2.020305,-2.0203 0.280166,-0.18678 0.690714,0.10647 1.010153,0 0.714285,-0.2381 1.34687,-0.67344 2.020305,-1.01016 1.34687,-0.67343 2.69374,-1.34687 4.04061,-2.0203 0.673435,-0.33672 1.306019,-0.77206 2.020305,-1.01015 0.319438,-0.10648 0.708983,0.15058 1.010152,0 0.851836,-0.42592 1.16847,-1.59439 2.020306,-2.02031 0.301169,-0.15058 0.708983,0.15058 1.010152,0 0.425918,-0.21296 0.584235,-0.79719 1.010153,-1.01015 0.301169,-0.15059 0.708983,0.15058 1.010152,0 0.425918,-0.21296 0.584235,-0.7972 1.010153,-1.01016 0.602338,-0.30116 1.417966,0.30117 2.020305,0 4.623071,-2.31153 -4.286498,0.41868 3.030457,-2.0203 0.319439,-0.10648 0.673435,0 1.010153,0 0.336718,-0.33672 0.584235,-0.79719 1.010153,-1.01015 0.301169,-0.15059 0.708983,0.15058 1.010152,0 0.425918,-0.21296 0.584235,-0.7972 1.010153,-1.01016 0.301169,-0.15058 0.708983,0.15059 1.010152,0 0.425918,-0.21295 0.584235,-0.79719 1.010153,-1.01015 0.301169,-0.15058 0.772057,0.2381 1.010152,0 0.238096,-0.23809 -0.238095,-0.77206 0,-1.01015 0.476191,-0.47619 1.417967,0.30117 2.020305,0 0.425918,-0.21296 0.584235,-0.79719 1.010153,-1.01015 0.301169,-0.15059 0.708983,0.15058 1.010152,0 0.425918,-0.21296 0.584235,-0.7972 1.010153,-1.010156 0.836017,-0.418008 1.691758,0.353056 2.020305,1.010156 0.301169,0.60234 -0.301169,1.41796 0,2.0203 0.212959,0.42592 0.797194,0.58424 1.010153,1.01015 0.02642,0.0529 0.02642,2.97762 0,3.03046 -0.212959,0.42592 -0.797194,0.58424 -1.010153,1.01015 -0.301169,0.60234 0.301169,1.41797 0,2.02031 -0.212959,0.42592 -0.797194,0.58423 -1.010152,1.01015 -0.02642,0.0528 -0.02642,2.97761 0,3.03046 0.212958,0.42592 0.797193,0.58423 1.010152,1.01015 0.150585,0.30117 0,0.67344 0,1.01016 0,0.33671 0,0.67343 0,1.01015 0,1.68359 0,3.36717 0,5.05076 0,0.33672 0,0.67344 0,1.01015 0,0.33672 -0.150585,0.70899 0,1.01016 0.212959,0.42591 0.797194,0.58423 1.010153,1.01015 0.317451,0.6349 -0.317452,3.4057 0,4.04061 0.212958,0.42592 0.797193,0.58423 1.010152,1.01015 0.301169,0.60234 -0.47619,1.54412 0,2.02031 0.238095,0.23809 0.772057,-0.2381 1.010153,0 0.47619,0.47619 -0.30117,1.41796 0,2.0203 0.212959,0.42592 0.797193,0.58424 1.010152,1.01015 0.150585,0.30117 -0.150584,0.70899 0,1.01016 0.212959,0.42591 0.797194,0.58423 1.010153,1.01015 0.301169,0.60234 -0.301169,1.41797 0,2.0203 0.212959,0.42592 0.797193,0.58424 1.010152,1.01016 0.30117,0.60233 -0.47619,1.54411 0,2.0203 0.238096,0.2381 0.772058,-0.23809 1.010153,0 0.238095,0.2381 -0.238095,0.77206 0,1.01015 2.090043,2.09005 -0.0817,-3.19386 2.020303,1.01016 0.30117,0.60234 -0.301167,1.41796 0,2.0203 0.26976,0.53951 2.49865,2.49865 3.03046,3.03046"
       style="fill:none;fill-rule:evenodd;stroke:#000000;stroke-width:1px;stroke-linecap:butt;stroke-linejoin:miter;stroke-opacity:1" />
    <path
       id="path4148"
       d="m 171.72593,149.28583 c 0.33672,1.34687 0.38928,2.79886 1.01016,4.04061 0.15058,0.30117 0.70898,-0.15059 1.01015,0 0.42592,0.21296 0.67343,0.67343 1.01015,1.01015 0.33672,0.33672 0.67344,0.67344 1.01015,1.01015 0.78902,0.78902 2.1588,2.44935 3.03046,3.03046 0.62647,0.41765 1.39384,0.59251 2.02031,1.01015 0.39621,0.26415 0.61393,0.74601 1.01015,1.01016 1.25294,0.83529 2.78767,1.18501 4.04061,2.0203 0.39621,0.26415 0.58423,0.7972 1.01015,1.01015 0.30117,0.15059 0.70898,-0.15058 1.01015,0 0.42592,0.21296 0.58424,0.7972 1.01016,1.01016 0.30117,0.15058 0.70898,-0.15059 1.01015,0 0.42592,0.21296 0.58423,0.79719 1.01015,1.01015 0.30117,0.15058 0.70898,-0.15058 1.01015,0 0.42592,0.21296 0.61394,0.74601 1.01016,1.01015 0.5087,2.22553 2.07807,0.53396 3.03045,1.01015 3.35026,3.35026 -0.95238,-0.47619 2.02031,1.01016 0.42592,0.21296 0.58423,0.79719 1.01015,1.01015 0.60234,0.30117 1.38143,-0.21296 2.02031,0 0.71428,0.2381 1.30602,0.77206 2.0203,1.01015 0.63888,0.21296 1.38143,-0.21296 2.02031,0 0.71428,0.2381 1.30602,0.77206 2.0203,1.01016 0.69482,0.2316 2.43445,-0.29801 3.03046,0 0.42592,0.21295 0.58423,0.79719 1.01015,1.01015 0.30117,0.15058 0.70899,-0.15059 1.01015,0 2.29926,2.29925 -0.2092,0.26698 2.02031,1.01015 7.31696,2.43899 -1.59261,-0.29123 3.03046,2.02031 0.6965,0.34824 3.03045,-0.76216 3.03045,1.01015 0,0.33672 -0.70898,0.15058 -1.01015,0 -0.42592,-0.21296 -0.58423,-0.7972 -1.01015,-1.01015 -0.30117,-0.15059 -0.77206,0.23809 -1.01015,0 0,-1.48635 0.23809,-0.77206 -1.01016,-2.02031 -3.35025,-3.35025 0.4762,0.95238 -1.01015,-2.0203 -0.21296,-0.42592 -0.79719,-0.58424 -1.01015,-1.01016 -0.40406,-0.80812 0.40406,-2.22233 0,-3.03046 -0.21296,-0.42591 -0.79719,-0.58423 -1.01015,-1.01015 -0.30117,-0.60234 0.30117,-1.41796 0,-2.0203 -0.21296,-0.42592 -0.7972,-0.58424 -1.01016,-1.01016 -0.15058,-0.30116 0,-0.67343 0,-1.01015 0,-0.33672 0,-0.67343 0,-1.01015 0,-2.36899 0.2381,0.47619 -1.01015,-2.02031 -0.40406,-0.80812 0.40406,-2.22233 0,-3.03045 -0.21296,-0.42592 -0.79719,-0.58424 -1.01015,-1.01016 -0.15059,-0.30116 0.10648,-0.69071 0,-1.01015 -0.2381,-0.71428 -0.77206,-1.30602 -1.01015,-2.0203 -0.31723,-0.95168 0.32746,-5.40599 0,-6.06092 -0.21296,-0.42592 -0.7972,-0.58423 -1.01016,-1.01015 -0.31745,-0.6349 0.31746,-3.40571 0,-4.04061 -0.21295,-0.42592 -0.79719,-0.58424 -1.01015,-1.01015 -0.30117,-0.60234 0.30117,-1.41797 0,-2.02031 -0.21296,-0.42592 -0.79719,-0.58423 -1.01015,-1.01015 -0.15059,-0.30117 0.23809,-0.77206 0,-1.01015 -0.2381,-0.2381 -0.67344,0 -1.01015,0 -0.67344,0 -1.34687,0 -2.02031,0 -0.67343,0 -1.36698,-0.16334 -2.0203,0 -1.46089,0.36522 -2.61204,1.54411 -4.04061,2.0203 -0.31944,0.10648 -0.70899,-0.15058 -1.01016,0 -1.08588,0.54294 -1.90323,1.56942 -3.03045,2.02031 -0.62527,0.2501 -1.38143,-0.21296 -2.02031,0 -0.45175,0.15058 -0.5584,0.85956 -1.01015,1.01015 -4.5985,0 -0.0578,-0.47619 -3.03046,1.01015 -0.80812,0.40406 -2.22233,-0.40406 -3.03046,0 -0.42591,0.21296 -0.58423,0.7972 -1.01015,1.01015 -0.6349,0.31746 -3.40571,-0.31745 -4.04061,0 -0.42592,0.21296 -0.58423,0.7972 -1.01015,1.01016 -0.30117,0.15058 -0.70899,-0.15059 -1.01015,0 -0.42592,0.21296 -0.58424,0.79719 -1.01016,1.01015 -0.30117,0.15058 -0.67343,0 -1.01015,0 -0.33672,0 -0.67343,0 -1.01015,0"
       style="fill:none;fill-rule:evenodd;stroke:#000000;stroke-width:1px;stroke-linecap:butt;stroke-linejoin:miter;stroke-opacity:1" />
    <path
       id="path4150"
       d="m 164.65486,133.12339 c 0.50242,-3.37784 -3.31016,-5.15945 -4.04061,-8.08122 -0.24499,-0.97999 0.31944,-2.07214 0,-3.03046 -0.23809,-0.71429 -0.77205,-1.30602 -1.01015,-2.0203 -0.0433,-0.12998 -0.0418,-2.9468 0,-3.03046 0.21296,-0.42592 0.85957,-0.5584 1.01015,-1.01015 0.3578,-1.0734 -0.3578,-2.96721 0,-4.04061 0.2381,-0.71429 0.77206,-1.30602 1.01016,-2.02031 0.21296,-0.63888 -0.30117,-1.41797 0,-2.02031 0.21296,-0.42591 0.79719,-0.58423 1.01015,-1.01015 0.15058,-0.30117 -0.15058,-0.70898 0,-1.01015 0.42592,-0.85184 1.59439,-1.16847 2.0203,-2.02031 0.15059,-0.30116 -0.15058,-0.70898 0,-1.01015 0.21296,-0.42592 0.7972,-0.58423 1.01016,-1.01015 0.15058,-0.30117 0,-0.67344 0,-1.01015 0.33671,-0.33672 0.79719,-0.58424 1.01015,-1.010156 0.15058,-0.301169 -0.15058,-0.708983 0,-1.010152 0.21296,-0.425918 0.74601,-0.613938 1.01015,-1.010153 0.41765,-0.62647 0.67344,-1.34687 1.01016,-2.020305 0.33671,-0.673435 0.77205,-1.306019 1.01015,-2.020305 0.10648,-0.319438 -0.15059,-0.708983 0,-1.010152 0.21296,-0.425918 0.79719,-0.584235 1.01015,-1.010153 0.15058,-0.301169 -0.15058,-0.708983 0,-1.010152 1.11675,-2.233503 0.62694,-0.313472 2.02031,-1.010153 0.42591,-0.212959 0.58423,-0.797194 1.01015,-1.010153 1.50943,-0.754714 3.73227,3.115587 4.04061,4.040611 0.10648,0.319438 -0.15059,0.708983 0,1.010152 3.35025,3.350254 -0.47619,-0.952381 1.01015,2.020305 0.42592,0.851836 1.59439,1.16847 2.02031,2.020305 0.15058,0.30117 -0.15059,0.708984 0,1.010153 0.21295,0.425918 0.74601,0.613938 1.01015,1.010152 0.41764,0.626466 0.5925,1.393836 1.01015,2.020306 0.26414,0.39621 0.79719,0.58423 1.01015,1.01015 0.15059,0.30117 -0.18677,0.72999 0,1.01015 0.52829,0.79243 1.49202,1.22788 2.02031,2.02031 0.18678,0.28017 -0.15059,0.70898 0,1.01015 0.42592,0.85184 1.59439,1.16847 2.0203,2.02031 0.15059,0.30117 -0.15058,0.70898 0,1.01015 0.42592,0.85184 1.59439,1.16847 2.02031,2.02031 0.15058,0.30116 -0.15059,0.70898 0,1.01015 0.21296,0.42592 0.79719,0.58423 1.01015,1.01015 0.15059,0.30117 0,0.67344 0,1.01015 0.33672,0.33672 0.79719,0.58424 1.01015,1.01016 0.15059,0.30116 -0.15058,0.70898 0,1.01015 0.21296,0.42592 1.01016,0.53396 1.01016,1.01015 0,0.33672 -0.69072,-0.10648 -1.01016,0 -0.71428,0.2381 -1.30602,0.77206 -2.0203,1.01015 -0.63888,0.21296 -1.38143,-0.21296 -2.02031,0 -0.71428,0.2381 -1.30602,0.77206 -2.0203,1.01016 -0.31944,0.10647 -0.70898,-0.15059 -1.01015,0 -0.42592,0.21295 -0.58424,0.79719 -1.01016,1.01015 -0.30117,0.15058 -0.70898,-0.15059 -1.01015,0 -0.42592,0.21296 -0.58423,0.79719 -1.01015,1.01015 -0.30117,0.15059 -0.70899,-0.15058 -1.01015,0 -0.42592,0.21296 -0.58424,0.79719 -1.01016,1.01015 -0.30117,0.15059 -0.70898,-0.15058 -1.01015,0 -0.42592,0.21296 -0.58423,0.7972 -1.01015,1.01016 -0.60234,0.30116 -1.41797,-0.30117 -2.02031,0 -0.42591,0.21295 -0.58423,0.79719 -1.01015,1.01015 -0.60234,0.30117 -1.41797,-0.30117 -2.0203,0 -0.85184,0.42592 -1.16847,1.59439 -2.02031,2.0203 -0.30117,0.15059 -0.70898,-0.15058 -1.01015,0 -0.42592,0.21296 -0.58424,0.7972 -1.01015,1.01016 -0.30117,0.15058 -0.70899,-0.15059 -1.01016,0 -1.3833,0.69164 -2.98438,4.9586 -3.03046,5.05076 z"
       style="fill:none;fill-rule:evenodd;stroke:#000000;stroke-width:1px;stroke-linecap:butt;stroke-linejoin:miter;stroke-opacity:1" />
    <path
       id="path4152"
       d="m 83.842661,-5.2675103 c -1.34687,-0.3367175 -2.666241,-0.8138141 -4.04061,-1.0101525 -1,-0.1428571 -2.020305,0 -3.030458,0 -2.020305,0 -4.04061,0 -6.060915,0 -6.397633,0 -12.795265,0 -19.192898,0 -8.081221,0 -16.162441,0 -24.243661,0 -2.020305,0 -4.04061,0 -6.060916,0 -1.34687,0 -2.707276,-0.1904762 -4.04061,0 -1.054092,0.1505846 -2.041821,0.6146979 -3.030457,1.0101525 -2.380953,0.952381 -4.6382987,2.2195345 -7.0710682,3.0304577 -1.628822,0.5429407 -3.3943316,0.5583986 -5.0507627,1.0101525 -5.8953183,1.60781409 -5.6893639,2.06885963 -11.111678,4.0406102 -2.0013731,0.7277721 -4.0406101,1.3468701 -6.0609151,2.0203051 -1.010153,0.3367175 -2.078077,0.5339621 -3.030458,1.0101525 -1.085881,0.5429407 -1.989416,1.3956804 -3.030457,2.0203051 -0.645627,0.3873758 -1.417967,0.5583986 -2.020306,1.0101526 -0.761904,0.5714285 -1.227876,1.4920196 -2.020305,2.0203046 -1.25294,0.835294 -2.78767,1.185012 -4.04061,2.020306 -0.792429,0.528285 -1.203645,1.530309 -2.020305,2.020305 -0.913053,0.547832 -2.078077,0.533962 -3.030458,1.010152 -4.145544,2.072772 -1.918879,1.535104 -5.050762,4.04061 -0.948016,0.758413 -2.082442,1.261893 -3.030458,2.020305 -0.743684,0.594948 -1.27662,1.425358 -2.020305,2.020306 -0.948016,0.758412 -2.082442,1.261892 -3.030458,2.020305 -1.859211,1.487369 -3.221664,3.526514 -5.050762,5.050762 -0.932661,0.777218 -2.082442,1.261893 -3.030458,2.020305 -0.743685,0.594948 -1.34687,1.346871 -2.020305,2.020306 -1.010153,1.010152 -2.020305,2.020305 -3.030458,3.030457 -1.010152,1.010153 -2.238029,1.841815 -3.030457,3.030458 -0.590642,0.885962 -0.533962,2.078077 -1.010153,3.030457 -3.405689,5.108533 -0.939353,0.833155 -3.030458,6.060916 -0.279628,0.699071 -0.886372,1.277626 -1.010152,2.020305 -0.221424,1.328544 0.221424,2.712066 0,4.04061 -0.12378,0.742679 -0.827542,1.289862 -1.010153,2.020305 -0.163332,0.653328 0,1.34687 0,2.020305 -0.336717,1.34687 -0.571126,2.723533 -1.010152,4.04061 -0.238095,0.714286 -0.827542,1.289863 -1.010153,2.020305 -0.163332,0.653328 0.132072,1.359948 0,2.020306 -0.208823,1.044116 -0.835101,1.980151 -1.010152,3.030457 -0.166068,0.996409 0.166068,2.034049 0,3.030458 -0.175051,1.050306 -1.010153,1.965663 -1.010153,3.030457 0,1.388322 0.837953,2.66301 1.010153,4.040611 0.167058,1.336469 0,2.69374 0,4.04061 0,1.34687 0,2.69374 0,4.04061 0,4.377328 0,8.754655 0,13.131981 0,4.04061 0,8.08122 0,12.12183 0,1.34687 0,2.69374 0,4.04061 0,1.01016 -0.166068,2.03405 0,3.03046 0.175051,1.05031 0.859568,1.97637 1.010152,3.03046 0.190476,1.33333 -0.190476,2.70727 0,4.04061 0.150585,1.05409 0.835102,1.98015 1.010153,3.03046 0.166068,0.9964 -0.142857,2.03045 0,3.03045 0.196338,1.37437 0.781914,2.67118 1.010152,4.04061 0.110712,0.66428 -0.132071,1.35995 0,2.02031 0.208824,1.04412 0.835102,1.98015 1.010153,3.03046 0.228054,1.36832 0,5.39837 0,7.07106 0,0.67344 -0.163332,1.36698 0,2.02031 0.182611,0.73044 0.827542,1.28986 1.010152,2.0203 0.163332,0.65333 0,1.34687 0,2.02031 0,0.67343 0,1.34687 0,2.0203 0,0.33672 -0.106479,0.69072 0,1.01016 2.889198,8.66759 -0.904758,-6.43871 1.010153,5.05076 0.175051,1.05031 0.614698,2.04182 1.010153,3.03046 0.279628,0.69907 0.886372,1.27762 1.010152,2.0203 0.221424,1.32855 -0.221424,2.71207 0,4.04061 0.12378,0.74268 0.862492,1.28201 1.010153,2.02031 0.198107,0.99053 -0.142858,2.03046 0,3.03046 0.196338,1.37436 0.781913,2.67117 1.010152,4.04061 0.110712,0.66427 -0.163332,1.36697 0,2.0203 0.182611,0.73044 0.673435,1.34687 1.010153,2.02031 0.336717,1.34687 0.781914,2.67117 1.010152,4.04061 0.221424,1.32854 -0.326664,2.73395 0,4.04061 0.182611,0.73044 0.772058,1.30602 1.010153,2.0203 0.319438,0.95832 -0.244998,2.05047 0,3.03046 0.182611,0.73044 0.827542,1.28986 1.010152,2.0203 0.244998,0.98 -0.319438,2.07215 0,3.03046 0.238096,0.71429 0.827542,1.28986 1.010153,2.02031 0.163332,0.65332 -0.212959,1.38143 0,2.0203 0.150585,0.45176 0.859568,0.5584 1.010152,1.01015 0.212959,0.63888 -0.163332,1.36698 0,2.02031 0.182611,0.73044 0.772058,1.30602 1.010153,2.0203 0.319438,0.95832 -0.244998,2.05047 0,3.03046 0.182611,0.73045 0.772057,1.30602 1.010153,2.02031 0.106479,0.31944 -0.10648,0.69071 0,1.01015 0.185407,0.55622 1.834897,3.48439 2.020305,4.04061 0.106479,0.31944 -0.10648,0.69071 0,1.01015 0.238095,0.71429 0.673435,1.34687 1.010152,2.02031 0.336718,0.67343 0.592506,1.39383 1.010153,2.0203 0.264143,0.39622 0.746009,0.61394 1.010152,1.01016 1.243265,1.86489 1.787193,4.19601 3.030458,6.06091 0.528286,0.79243 1.34687,1.34687 2.020305,2.02031 1.450438,1.45043 3.464693,3.7819 5.050763,5.05076 1.896031,1.51682 4.164884,2.52378 6.060915,4.04061 0.743685,0.59495 1.288666,1.4106 2.020305,2.0203 2.003354,2.17144 4.80924,3.2413 7.071068,5.05077 0.743684,0.59494 1.27662,1.42535 2.020305,2.0203 2.246868,1.7975 4.667318,2.59836 7.071068,4.04061 1.041041,0.62463 1.989416,1.39568 3.030457,2.02031 0.645627,0.38737 1.346871,0.67343 2.020306,1.01015 1.3468696,0.67343 2.6565184,1.42712 4.0406097,2.0203 0.9787004,0.41945 2.0780767,0.53397 3.0304577,1.01016 1.0858813,0.54294 1.9445762,1.47736 3.0304576,2.0203 0.95238095,0.47619 2.041821,0.6147 3.0304576,1.01015 0.6990717,0.27963 1.3212334,0.73053 2.0203051,1.01016 0.9886367,0.39545 2.041821,0.6147 3.0304577,1.01015 1.3981433,0.55926 2.6120386,1.54411 4.0406106,2.0203 0.958314,0.31944 2.050465,-0.24499 3.030457,0 1.460886,0.36523 2.564006,1.72499 4.04061,2.02031 0.990536,0.19811 2.03405,-0.16607 3.030458,0 1.050307,0.17505 2.020305,0.67343 3.030458,1.01015 3.298521,1.09951 4.180497,1.53272 8.08122,2.02031 1.002352,0.12529 2.039922,-0.19811 3.030458,0 0.738302,0.14766 1.277626,0.88637 2.020305,1.01015 13.447069,0 -2.001541,-0.60234 6.060915,1.01015 1.981072,0.39622 4.079843,-0.39621 6.060915,0 0.738302,0.14766 1.289863,0.82754 2.020305,1.01016 0.653328,0.16333 1.356033,-0.11072 2.020305,0 15.063553,2.51059 -4.938401,-0.38159 7.071068,2.0203 0.660358,0.13207 1.356033,-0.11071 2.020305,0 1.369433,0.22824 2.666242,0.81381 4.040611,1.01015 1,0.14286 2.034049,-0.16607 3.030457,0 1.050307,0.17505 1.980151,0.8351 3.030458,1.01016 1.66068,0.27678 3.367175,0 5.050763,0 1.683587,0 3.399869,0.33017 5.050762,0 0.738302,-0.14767 1.267382,-1.01016 2.020305,-1.01016 1.064795,0 1.980151,0.8351 3.030458,1.01016 0.996408,0.16606 2.020305,0 3.030458,0 3.703892,0 7.407785,0 11.111678,0 3.36717,0 6.73435,0 10.10153,0 1.01015,0 2.0203,0 3.03045,0 0.67344,0 1.35995,0.13207 2.02031,0 1.04411,-0.20883 1.96566,-1.01016 3.03046,-1.01016 1.06479,0 1.98634,0.80133 3.03045,1.01016 0.66036,0.13207 1.34687,0 2.02031,0 3.03046,0 6.06091,0 9.09137,0 2.35702,0 4.71405,0 7.07107,0 1.34687,0 2.70414,0.16705 4.04061,0 1.3776,-0.1722 2.66624,-0.81382 4.04061,-1.01016 1,-0.14285 2.0203,0 3.03046,0 2.55479,0 3.1272,0.16333 6.06091,-1.01015 0.44213,-0.17685 0.5584,-0.85957 1.01015,-1.01015 0.63888,-0.21296 1.35995,0.13207 2.02031,0 2.08823,-0.41765 3.97268,-1.60266 6.06092,-2.02031 0.66035,-0.13207 1.35994,0.13207 2.0203,0 12.00947,-2.40189 -7.99248,0.49029 7.07107,-2.0203 3.4673,-0.57789 0.77711,1.12667 5.05076,-1.01016 1.08588,-0.54294 1.98942,-1.39568 3.03046,-2.0203 0.64562,-0.38738 1.41796,-0.5584 2.0203,-1.01015 0.76191,-0.57143 1.27662,-1.42536 2.02031,-2.02031 0.94801,-0.75841 2.05921,-1.29187 3.03046,-2.0203 1.13137,-0.84853 1.89908,-2.18193 3.03045,-3.03046 0.60234,-0.45175 1.37468,-0.62278 2.02031,-1.01015 1.04104,-0.62463 1.98942,-1.39568 3.03046,-2.02031 0.64562,-0.38737 1.37468,-0.62277 2.0203,-1.01015 1.04104,-0.62463 1.98942,-1.39568 3.03046,-2.02031 0.64563,-0.38737 1.41797,-0.55839 2.0203,-1.01015 2.03073,-1.52304 3.53494,-4.24192 5.05077,-6.06091 0.6097,-0.73164 1.42535,-1.27662 2.0203,-2.02031 0.75841,-0.94801 1.16184,-2.17199 2.02031,-3.03046 0.85846,-0.85846 2.08244,-1.26189 3.03045,-2.0203 0.74369,-0.59495 1.34687,-1.34687 2.02031,-2.02031 2.02031,-2.0203 4.04061,-4.04061 6.06092,-6.06091 2.0203,-2.02031 4.04061,-4.04061 6.06091,-6.06092 0.67344,-0.67343 1.41061,-1.28866 2.02031,-2.0203 2.63026,-3.15632 4.79687,-6.69023 7.07106,-10.10153 0.67344,-1.01015 1.2619,-2.08244 2.02031,-3.03046 6.1857,-6.1857 -1.27775,1.70368 3.03046,-4.04061 0.85714,-1.14285 2.23802,-1.84181 3.03045,-3.03045 0.41765,-0.62647 0.5584,-1.41797 1.01016,-2.02031 0.94309,-1.25746 3.89819,-3.89819 5.05076,-5.05076 0.67343,-0.67344 1.44888,-1.2584 2.0203,-2.02031 0.45176,-0.60233 0.67344,-1.34687 1.01016,-2.0203 1.01015,-2.02031 1.86833,-4.12404 3.03045,-6.06092 0.62463,-1.04104 1.59403,-1.8937 2.02031,-3.03045 0.60285,-1.60761 0.53848,-3.3999 1.01015,-5.05077 0.50399,-1.76394 2.28414,-3.55813 3.03046,-5.05076 1.01861,-2.03723 0.69634,-3.28547 2.0203,-5.05076 1.14286,-1.52381 2.89776,-2.5168 4.04061,-4.04061 0.45176,-0.60234 0.59251,-1.39384 1.01016,-2.02031 2.8412,-4.2618 -1.7336,5.48751 3.03046,-4.04061 0.47619,-0.95238 0.61469,-2.04182 1.01015,-3.03046 2.76997,-6.92494 -1.27258,5.46417 2.0203,-6.06091 0.29252,-1.02383 0.8351,-1.98015 1.01016,-3.03046 0.16606,-0.99641 -0.14286,-2.03046 0,-3.03046 0.19633,-1.37436 0.78191,-2.67117 1.01015,-4.04061 0.11071,-0.66427 -0.16333,-1.36697 0,-2.0203 0.18261,-0.73044 0.86249,-1.282 1.01015,-2.02031 0.19811,-0.99053 -0.19811,-2.03992 0,-3.03045 0.14766,-0.73831 0.77206,-1.30602 1.01015,-2.02031 0.13024,-0.3907 0.0603,-6.70939 0,-7.07107 -0.17505,-1.0503 -0.85957,-1.97636 -1.01015,-3.03045 -0.19048,-1.33334 0.19048,-2.70728 0,-4.04061 -0.24615,-1.72309 -3.51144,-10.05334 -4.04061,-11.11168 -0.54294,-1.08588 -1.54207,-1.91457 -2.0203,-3.03046 -2.6651,-6.21855 1.00962,-2.0211 -3.03046,-8.08122 -0.52829,-0.79243 -1.44888,-1.2584 -2.02031,-2.020306 -0.45175,-0.602338 -0.62277,-1.374678 -1.01015,-2.020305 -0.62462,-1.041041 -1.39568,-1.989416 -2.02031,-3.030457 -0.38737,-0.645627 -0.55839,-1.417967 -1.01015,-2.020305 -0.57143,-0.761905 -1.53031,-1.203646 -2.0203,-2.020305 -0.54784,-0.913054 -0.39126,-2.163999 -1.01016,-3.030458 -1.10712,-1.549969 -2.801,-2.594407 -4.04061,-4.04061 -3.44142,-4.014999 -0.61619,-2.636504 -5.05076,-7.071068 -0.85846,-0.858465 -2.0978,-1.243088 -3.03046,-2.020305 -1.09745,-0.914549 -1.9458,-2.100756 -3.03045,-3.030458 -1.95256,-2.233653 -4.84588,-3.196434 -7.07107,-5.050763 -1.09746,-0.914549 -1.933,-2.115908 -3.03046,-3.030457 -0.93266,-0.777217 -2.0203,-1.34687 -3.03046,-2.020305 -1.01015,-0.673435 -1.98941,-1.395681 -3.03045,-2.020305 -0.64563,-0.387376 -1.41797,-0.558399 -2.02031,-1.010153 -3.75826,-2.818695 -0.10674,-1.568599 -5.05076,-4.04061 -0.95238,-0.476191 -2.1445,-0.419511 -3.03046,-1.010153 -1.18864,-0.792428 -1.84181,-2.238028 -3.03046,-3.030457 -0.88596,-0.590642 -2.07807,-0.533962 -3.03046,-1.010153 -3.12686,-1.563431 -3.86812,-3.220511 -7.07106,-5.050763 -0.9245,-0.528285 -2.1445,-0.41951 -3.03046,-1.010152 -1.18864,-0.792429 -1.81903,-2.273316 -3.03046,-3.030458 -1.53766,-0.961036 -3.42891,-1.209382 -5.05076,-2.020305 -2.17176,-1.085881 -3.82914,-3.084133 -6.06092,-4.04061 -1.27607,-0.546887 -2.7057,-0.628751 -4.04061,-1.010153 -1.01015,-0.336717 -2.0203,-0.673435 -3.03045,-1.010152 -0.67344,-0.336718 -1.30602,-0.772057 -2.02031,-1.010153 -1.31708,-0.439026 -2.72353,-0.571126 -4.04061,-1.010152 -1.42857,-0.476191 -2.64247,-1.461048 -4.04061,-2.020305 -0.98864,-0.395455 -2.04182,-0.614698 -3.03046,-1.010153 -1.39814,-0.559257 -2.69374,-1.34687 -4.04061,-2.020305 -1.34687,-0.673435 -2.73317,-1.273196 -4.04061,-2.020305 -1.05409,-0.602339 -1.94457,-1.477364 -3.03046,-2.020305 -0.95238,-0.476191 -2.05175,-0.59071 -3.03045,-1.010153 -2.07614,-0.889773 -3.9637,-2.191571 -6.06092,-3.030457 -0.98863,-0.395455 -2.07807,-0.533962 -3.03046,-1.010153 -1.08588,-0.54294 -1.94457,-1.477364 -3.03045,-2.020305 -0.30117,-0.150585 -0.69072,0.10648 -1.01016,0 -0.71428,-0.238095 -1.32123,-0.730524 -2.0203,-1.010152 -0.98864,-0.395455 -2.04182,-0.614698 -3.03046,-1.010153 -2.5542,-1.021682 -2.28388,-1.44938 -5.05076,-3.0304576 -1.30744,-0.7471091 -2.65652,-1.4271231 -4.04061,-2.0203051 -1.9574,-0.838886 -4.04061,-1.3468701 -6.06092,-2.0203051 -2.40189,-0.8006313 -4.53426,-1.5975041 -7.07106,-2.0203051 -0.66428,-0.110712 -1.35995,0.1320715 -2.02031,0 -1.04412,-0.2088233 -2.07808,-0.5339621 -3.03046,-1.0101525 -3.08052,-1.54026099 1.84752,-0.8008125 -3.03045,-2.02030513 -6.70051,0 1.42857,0.47619047 -3.03046,-1.01015257 -0.63888,-0.2129588 -1.36698,0.163332 -2.02031,0 -0.73044,-0.1826107 -1.34687,-0.673435 -2.0203,-1.0101525 -0.67344,-0.3367175 -1.34687,-0.6734351 -2.02031,-1.0101526 -4.737973,-2.3689875 1.19048,0.4761905 -5.050761,-2.0203051 -0.139642,-0.055857 -3.992964,-2.010776 -4.04061,-2.020305 -0.990536,-0.1981073 -2.050465,0.2449979 -3.030457,0 -0.461973,-0.1154932 -0.558399,-0.8595679 -1.010153,-1.0101526 -0.638876,-0.2129589 -1.34687,0 -2.020305,0 -0.336718,0 -0.708983,0.1505847 -1.010153,0 -0.425917,-0.2129589 -0.584234,-0.7971937 -1.010152,-1.0101525 -0.602339,-0.3011693 -1.417967,0.3011693 -2.020305,0 -0.425918,-0.2129589 -0.584235,-0.7971936 -1.010153,-1.0101526 -0.301169,-0.150585 -0.673435,0 -1.010152,0 -0.673435,0 -1.381429,0.212959 -2.020305,0 -0.451754,-0.150585 -0.558399,-0.859568 -1.010153,-1.010153 -0.638876,-0.212958 -1.381428,0.212959 -2.020305,0 -3.744743,-1.248247 1.231327,-1.010152 -2.020305,-1.010152"
       style="fill:none;fill-rule:evenodd;stroke:#000000;stroke-width:1px;stroke-linecap:butt;stroke-linejoin:miter;stroke-opacity:1" />
    <path
       id="path4154"
       d="m -57.578695,199.79346 c 0,0 112.126932,-25.25382 134.350288,-28.28427 l 0,85.86296"
       style="fill:none;fill-rule:evenodd;stroke:#ff0000;stroke-width:1px;stroke-linecap:butt;stroke-linejoin:miter;stroke-opacity:1;marker-start:url(#marker4534);marker-end:url(#marker4494)" />
    <path
       id="path4156"
       d="M 75.761441,170.49903 46.467017,84.636066"
       style="fill:none;fill-rule:evenodd;stroke:#ff0000;stroke-width:1px;stroke-linecap:butt;stroke-linejoin:miter;stroke-opacity:1;marker-end:url(#marker4592)" />
    <path
       id="path4162"
       d="m 345.47217,154.3366 145.46197,0 0,104.04571"
       style="fill:none;fill-rule:evenodd;stroke:#ff0000;stroke-width:1px;stroke-linecap:butt;stroke-linejoin:miter;stroke-opacity:1;marker-start:url(#Arrow1Lstart);marker-end:url(#Arrow1Lend)" />
    <path
       id="path4698"
       d="m -60.609153,158.3772 c 3.379025,0.59741 2.323681,4.34399 4.04061,6.06092 0.238096,0.23809 0.772058,-0.2381 1.010153,0 0.238095,0.23809 -0.150585,0.70898 0,1.01015 0.425918,0.85184 1.594387,1.16847 2.020305,2.0203 0.150585,0.30117 -0.08167,0.68349 0,1.01016 0.258251,1.033 0.614698,2.04182 1.010153,3.03046 1.788192,4.47048 0.345178,-0.81219 2.020305,5.05076 0.381401,1.3349 0.571126,2.72353 1.010152,4.04061 0.238096,0.71428 0.592506,1.39383 1.010153,2.0203 0.157795,0.2367 1.781218,1.24924 1.010152,2.02031 -0.743171,0.74317 -1.82306,-0.81291 -2.020305,-1.01015"
       style="fill:none;fill-rule:evenodd;stroke:#ff0000;stroke-width:1px;stroke-linecap:butt;stroke-linejoin:miter;stroke-opacity:1" />
    <path
       id="path4700"
       d="m -68.690373,178.58025 c 3.795121,2.36491 3.188133,-2.40958 5.050763,-3.03045 0.638876,-0.21296 1.366977,0.16333 2.020305,0 0.655228,-0.16381 5.417175,-2.6013 6.060915,-3.03046 0.396214,-0.26415 0.613938,-0.74601 1.010153,-1.01015 0.922761,-0.61518 2.451429,-0.86225 3.030457,-2.02031 0.150585,-0.30117 0,-0.67343 0,-1.01015 0.336718,-0.33672 0.797194,-0.58424 1.010153,-1.01016 0.150584,-0.30116 -0.150585,-0.70898 0,-1.01015 0.212959,-0.42592 0.797193,-0.58423 1.010152,-1.01015 0.150585,-0.30117 -0.150584,-0.70898 0,-1.01015 1.248248,-2.4965 1.010153,0.34868 1.010153,-2.02031"
       style="fill:none;fill-rule:evenodd;stroke:#ff0000;stroke-width:1px;stroke-linecap:butt;stroke-linejoin:miter;stroke-opacity:1" />
    <path
       id="path4702"
       d="m 58.588848,67.463473 c 2.357022,2.357023 4.714045,4.714045 7.071067,7.071068 0.336718,0.336717 0.584235,0.797194 1.010153,1.010152 0.301169,0.150585 0.772057,-0.238095 1.010153,0 0.238095,0.238096 0.336717,1.010153 0,1.010153 -0.336718,0 0,-0.673435 0,-1.010153"
       style="fill:none;fill-rule:evenodd;stroke:#ff0000;stroke-width:1px;stroke-linecap:butt;stroke-linejoin:miter;stroke-opacity:1" />
    <path
       id="path4704"
       d="m 77.781746,64.433015 c -1.8783,0.869516 -2.246673,3.854805 -4.04061,5.050763 -0.62647,0.417647 -1.393835,0.592506 -2.020305,1.010153 -0.792429,0.528286 -1.16847,1.594387 -2.020305,2.020305 -0.30117,0.150584 -0.708984,-0.150585 -1.010153,0 -2.233503,1.116751 -0.313472,0.626944 -1.010152,2.020305 -0.212959,0.425918 -0.673435,0.673435 -1.010153,1.010152 -0.336718,0.336718 -0.584235,0.797194 -1.010153,1.010153 -0.301169,0.150585 -0.708983,-0.150585 -1.010152,0 -0.425918,0.212959 -0.673435,0.673435 -1.010153,1.010152 -0.594115,0.594116 -3.57283,3.806721 -4.04061,4.040611 -0.301169,0.150584 -0.772057,-0.238096 -1.010152,0 -0.238096,0.238095 0.238095,0.772057 0,1.010152 -0.238096,0.238095 -0.772058,-0.238095 -1.010153,0 -1.34687,1.34687 1.683588,1.010153 -1.010152,1.010153"
       style="fill:none;fill-rule:evenodd;stroke:#ff0000;stroke-width:1px;stroke-linecap:butt;stroke-linejoin:miter;stroke-opacity:1" />
    <path
       id="path4706"
       d="m 86.873119,252.32139 c 5.380941,1.07619 3.333833,1.01015 6.060915,1.01015 0.806058,0 4.444728,-0.20201 5.050763,0 0.714286,0.2381 1.306019,0.77206 2.020303,1.01015 0.63888,0.21296 1.41797,-0.30117 2.02031,0 0.42591,0.21296 0.58423,0.7972 1.01015,1.01016 0.30117,0.15058 1.01015,-0.33672 1.01015,0 0,0.33671 -0.67343,0 -1.01015,0 -0.67344,0 -1.36698,-0.16334 -2.02031,0 -0.73044,0.18261 -1.306015,0.77205 -2.020301,1.01015 -0.319438,0.10648 -0.673435,0 -1.010152,0 -1.010153,0.33672 -2.041821,0.6147 -3.030458,1.01015 -0.699071,0.27963 -1.289862,0.82754 -2.020305,1.01015 -1.306656,0.32667 -2.762857,-0.42591 -4.04061,0 -0.451754,0.15059 -0.558399,0.85957 -1.010153,1.01016 -0.46203,0.15401 -3.591115,-0.22475 -4.04061,0 -0.425917,0.21296 -0.584235,0.79719 -1.010152,1.01015 -0.30117,0.15058 -0.708984,-0.15059 -1.010153,0 -0.425918,0.21296 -0.584235,0.79719 -1.010152,1.01015 -0.602339,0.30117 -1.417967,-0.30117 -2.020305,0 -0.425918,0.21296 -0.584235,0.7972 -1.010153,1.01015 -0.602339,0.30117 -1.417966,-0.30117 -2.020305,0 -0.425918,0.21296 -0.673435,1.34687 -1.010153,1.01016 -0.336717,-0.33672 0.673435,-1.34687 1.010153,-1.01016 0.47619,0.47619 -0.301169,1.41797 0,2.02031 0.150585,0.30117 0.708983,-0.15059 1.010152,0 0.425918,0.21296 0.584235,0.79719 1.010153,1.01015 0.301169,0.15059 0.690714,-0.10648 1.010153,0 0.714285,0.2381 1.289862,0.82754 2.020305,1.01015 0.768187,0.19205 4.204872,0 5.050762,0 0.673435,0 1.381429,-0.21295 2.020305,0 4.45903,1.48635 -3.67005,1.01016 3.030458,1.01016 0.28184,0 6.272913,0 3.030458,0"
       style="fill:none;fill-rule:evenodd;stroke:#ff0000;stroke-width:1px;stroke-linecap:butt;stroke-linejoin:miter;stroke-opacity:1" />
    <path
       id="path4708"
       d="m 366.68537,130.09293 c 1.34687,1.34687 2.69374,2.69374 4.04061,4.04061 0,0.33672 -0.15058,0.70899 0,1.01016 0.21296,0.42591 0.58424,0.79719 1.01016,1.01015 0.30117,0.15058 0.70898,-0.15059 1.01015,0 0.46778,0.23389 3.44649,3.44649 4.04061,4.04061 0.33672,0.33672 0.79719,0.58423 1.01015,1.01015 0.15059,0.30117 -0.23809,0.77206 0,1.01015 0.2381,0.2381 0.77206,-0.23809 1.01015,0 1.34687,1.34687 -1.68358,1.01016 1.01016,1.01016"
       style="fill:none;fill-rule:evenodd;stroke:#ff0000;stroke-width:1px;stroke-linecap:butt;stroke-linejoin:miter;stroke-opacity:1" />
    <path
       id="path4710"
       d="m 366.09364,143.22492 c 2.92649,-0.49734 5.68208,-5.47164 8.08122,-7.07107 0.28016,-0.18678 0.70898,0.15058 1.01015,0 0.42592,-0.21296 0.67344,-0.67344 1.01015,-1.01015 0.67344,-0.67344 1.22788,-1.49202 2.02031,-2.02031 0.28016,-0.18678 0.70898,0.15059 1.01015,0 2.2335,-1.11675 0.31347,-0.62694 1.01015,-2.0203 0.21296,-0.42592 0.67344,-0.67344 1.01016,-1.01016"
       style="fill:none;fill-rule:evenodd;stroke:#ff0000;stroke-width:1px;stroke-linecap:butt;stroke-linejoin:miter;stroke-opacity:1" />
    <path
       id="path4712"
       d="m 504.06612,250.30109 c 1.21312,-1.07733 5.78759,5.41917 7.07107,6.06091 0.30117,0.15059 0.67343,0 1.01015,0"
       style="fill:none;fill-rule:evenodd;stroke:#ff0000;stroke-width:1px;stroke-linecap:butt;stroke-linejoin:miter;stroke-opacity:1" />
    <path
       id="path4714"
       d="m 518.20826,249.29093 c -1.34687,0.67344 -2.69374,1.34687 -4.04061,2.02031 -0.33672,0.33672 -0.61394,0.74601 -1.01016,1.01015 -0.92276,0.61518 -2.45143,0.86225 -3.03045,2.02031 -0.69669,1.39336 1.22335,0.90355 -1.01016,2.0203 -0.30117,0.15059 -0.70898,-0.15058 -1.01015,0 -0.42592,0.21296 -0.58423,0.7972 -1.01015,1.01015 -0.30117,0.15059 -0.70899,-0.15058 -1.01016,0 -0.42591,0.21296 -0.67343,0.67344 -1.01015,1.01016 -0.33672,0.33671 -0.79719,0.58423 -1.01015,1.01015 -0.15058,0.30117 0.15058,0.70898 0,1.01015 -0.84203,1.68407 -2.02031,0.45643 -2.02031,3.03046"
       style="fill:none;fill-rule:evenodd;stroke:#ff0000;stroke-width:1px;stroke-linecap:butt;stroke-linejoin:miter;stroke-opacity:1" />
    <text
       id="text4716"
       y="22.26536"
       x="173.15544"
       style="font-style:normal;font-weight:normal;font-size:21.72675514px;line-height:125%;font-family:sans-serif;letter-spacing:0px;word-spacing:0px;fill:#000000;fill-opacity:1;stroke:none;stroke-width:1px;stroke-linecap:butt;stroke-linejoin:miter;stroke-opacity:1"
       xml:space="preserve"><tspan
         y="22.26536"
         x="173.15544"
         id="tspan4718">far field</tspan></text>
    <text
       xml:space="preserve"
       style="font-style:normal;font-weight:normal;font-size:21.72675514px;line-height:125%;font-family:sans-serif;letter-spacing:0px;word-spacing:0px;fill:#000000;fill-opacity:1;stroke:none;stroke-width:1px;stroke-linecap:butt;stroke-linejoin:miter;stroke-opacity:1"
       x="620.65302"
       y="22.26536"
       id="text4720"><tspan
         id="tspan4722"
         x="620.65302"
         y="22.26536">far field</tspan></text>
  </g>
</svg>
