<?xml version="1.0" encoding="UTF-8" standalone="no"?>
<!-- Created with Inkscape (http://www.inkscape.org/) -->

<svg
   xmlns:dc="http://purl.org/dc/elements/1.1/"
   xmlns:cc="http://creativecommons.org/ns#"
   xmlns:rdf="http://www.w3.org/1999/02/22-rdf-syntax-ns#"
   xmlns:svg="http://www.w3.org/2000/svg"
   xmlns="http://www.w3.org/2000/svg"
   xmlns:sodipodi="http://sodipodi.sourceforge.net/DTD/sodipodi-0.dtd"
   xmlns:inkscape="http://www.inkscape.org/namespaces/inkscape"
   id="svg2"
   version="1.1"
   inkscape:version="0.91 r13725"
   xml:space="preserve"
   width="337.5"
   height="265"
   viewBox="0 0 337.5 265"
   sodipodi:docname="pierce.svg"><metadata
     id="metadata8"><rdf:RDF><cc:Work
         rdf:about=""><dc:format>image/svg+xml</dc:format><dc:type
           rdf:resource="http://purl.org/dc/dcmitype/StillImage" /><dc:title></dc:title></cc:Work></rdf:RDF></metadata><defs
     id="defs6"><clipPath
       clipPathUnits="userSpaceOnUse"
       id="clipPath26"><path
         d="M 0,2120 0,0 l 2700,0 0,2120 -2700,0 z m 1775.34,-524.02 1.89,156.85 -85.04,0.63 -1.89,-156.21 0,0 44.09,117.16 40.95,-118.43 z"
         id="path28"
         inkscape:connector-curvature="0"
         style="clip-rule:evenodd" /></clipPath><clipPath
       clipPathUnits="userSpaceOnUse"
       id="clipPath40"><path
         d="M 0,2120 0,0 l 2700,0 0,2120 -2700,0 z m 1844,-332.52 47.24,0 0,37.79 -47.24,0 0,0 37.79,-18.9 -37.79,-18.89 z"
         id="path42"
         inkscape:connector-curvature="0"
         style="clip-rule:evenodd" /></clipPath></defs><sodipodi:namedview
     pagecolor="#ffffff"
     bordercolor="#666666"
     borderopacity="1"
     objecttolerance="10"
     gridtolerance="10"
     guidetolerance="10"
     inkscape:pageopacity="0"
     inkscape:pageshadow="2"
     inkscape:window-width="1920"
     inkscape:window-height="1011"
     id="namedview4"
     showgrid="false"
     inkscape:zoom="2.5189011"
     inkscape:cx="67.374716"
     inkscape:cy="139.7997"
     inkscape:window-x="1280"
     inkscape:window-y="0"
     inkscape:window-maximized="1"
     inkscape:current-layer="g10" /><g
     id="g10"
     inkscape:groupmode="layer"
     inkscape:label="ink_ext_XXXXXX"
     transform="matrix(1.25,0,0,-1.25,0,265)"><path
       inkscape:connector-curvature="0"
       id="path14"
       style="fill:#d2c295;fill-opacity:0.58431375;fill-rule:evenodd;stroke:none"
       d="M 18.1691,83.4438 110.764,22.0285 253.437,135.411 19.1137,85.3332" /><path
       inkscape:connector-curvature="0"
       id="path16"
       style="fill:none;stroke:#000000;stroke-width:0.47242498;stroke-linecap:butt;stroke-linejoin:miter;stroke-miterlimit:10;stroke-dasharray:none;stroke-opacity:1"
       d="M 18.1691,83.4438 110.764,22.0285 253.437,135.411 19.1137,85.3332" /><path
       inkscape:connector-curvature="0"
       id="path18"
       style="fill:none;stroke:#000000;stroke-width:0.47242498;stroke-linecap:butt;stroke-linejoin:miter;stroke-miterlimit:10;stroke-dasharray:none;stroke-opacity:1"
       d="M 109.252,197.015 174.321,97.4906" /><path
       inkscape:connector-curvature="0"
       id="path20"
       style="fill:none;stroke:#000000;stroke-width:0.47242498;stroke-linecap:butt;stroke-linejoin:miter;stroke-miterlimit:10;stroke-dasharray:3.7794;stroke-dashoffset:0;stroke-opacity:1"
       d="M 169.345,105.616 218.036,32.4219" /><g
       id="g22"
       transform="scale(0.1,0.1)"><g
         clip-path="url(#clipPath26)"
         id="g24"><path
           inkscape:connector-curvature="0"
           id="path30"
           style="fill:none;stroke:#000000;stroke-width:28.34550095;stroke-linecap:butt;stroke-linejoin:miter;stroke-miterlimit:10;stroke-dasharray:none;stroke-opacity:1"
           d="m 1726.84,995.691 8.18,747.689" /></g></g><path
       inkscape:connector-curvature="0"
       id="path32"
       style="fill:#000000;fill-opacity:1;fill-rule:evenodd;stroke:none"
       d="m 177.534,159.598 -4.095,11.843 -4.409,-11.716 4.283,2.33 4.221,-2.457" /><path
       inkscape:connector-curvature="0"
       id="path34"
       style="fill:none;stroke:#000000;stroke-width:1.88969994;stroke-linecap:butt;stroke-linejoin:miter;stroke-miterlimit:10;stroke-dasharray:none;stroke-opacity:1"
       d="m 177.534,159.598 -4.095,11.843 -4.409,-11.716 4.283,2.33 4.221,-2.457 z" /><g
       id="g36"
       transform="scale(0.1,0.1)"><g
         clip-path="url(#clipPath40)"
         id="g38"><path
           inkscape:connector-curvature="0"
           id="path44"
           style="fill:none;stroke:#000000;stroke-width:4.72424984;stroke-linecap:butt;stroke-linejoin:miter;stroke-miterlimit:10;stroke-dasharray:none;stroke-opacity:1"
           d="m 1785.41,1806.37 96.38,0" /></g></g><path
       inkscape:connector-curvature="0"
       id="path46"
       style="fill:#000000;fill-opacity:1;fill-rule:evenodd;stroke:none"
       d="m 184.4,178.748 3.779,1.889 -3.779,1.89 0,-3.779" /><path
       inkscape:connector-curvature="0"
       id="path48"
       style="fill:none;stroke:#000000;stroke-width:0.80000001;stroke-linecap:butt;stroke-linejoin:miter;stroke-miterlimit:10;stroke-dasharray:none;stroke-opacity:1"
       d="m 184.4,178.748 3.779,1.889 -3.779,1.89 0,-3.779 z" /><g
       id="g50"><text
         id="text52"
         style="font-variant:normal;font-weight:normal;font-size:19.9993px;font-family:Times;-inkscape-font-specification:Times-Roman;writing-mode:lr-tb;fill:#000000;fill-opacity:1;fill-rule:nonzero;stroke:none"
         transform="matrix(1,0,0,-1,104.213,0.926953)"><tspan
           id="tspan54"
           y="0"
           x="0">B</tspan><tspan
           id="tspan56"
           y="-77.225403"
           x="-103.304">A</tspan><tspan
           id="tspan58"
           y="-139.3969"
           x="149.47501">C</tspan><tspan
           id="tspan60"
           y="-89.382797"
           x="51.147701">P</tspan><tspan
           id="tspan62"
           y="-195.6468"
           x="8.4403">D</tspan><tspan
           id="tspan64"
           y="-25.573799"
           x="118.4843">E</tspan><tspan
           id="tspan66"
           y="-167.9938"
           x="73.068298">n</tspan></text>
</g><path
       inkscape:connector-curvature="0"
       id="path68"
       style="fill:#ffffff;fill-opacity:1;fill-rule:evenodd;stroke:none"
       d="m 258.413,134.466 c 0,-2.818 -2.285,-5.103 -5.102,-5.103 -2.818,0 -5.102,2.285 -5.102,5.103 0,2.817 2.284,5.102 5.102,5.102 2.817,0 5.102,-2.285 5.102,-5.102" /><path
       inkscape:connector-curvature="0"
       id="path70"
       style="fill:none;stroke:#000000;stroke-width:0.47242498;stroke-linecap:butt;stroke-linejoin:miter;stroke-miterlimit:10;stroke-dasharray:none;stroke-opacity:1"
       d="m 258.413,134.466 c 0,-2.818 -2.285,-5.103 -5.102,-5.103 -2.818,0 -5.102,2.285 -5.102,5.103 0,2.817 2.284,5.102 5.102,5.102 2.817,0 5.102,-2.285 5.102,-5.102 z" /><path
       inkscape:connector-curvature="0"
       id="path72"
       style="fill:#ffffff;fill-opacity:1;fill-rule:evenodd;stroke:none"
       d="m 25.35,84.8926 c 0,-2.8176 -2.2848,-5.1024 -5.1023,-5.1024 -2.8176,0 -5.1024,2.2848 -5.1024,5.1024 0,2.8176 2.2848,5.1019 5.1024,5.1019 2.8175,0 5.1023,-2.2843 5.1023,-5.1019" /><path
       inkscape:connector-curvature="0"
       id="path74"
       style="fill:none;stroke:#000000;stroke-width:0.47242498;stroke-linecap:butt;stroke-linejoin:miter;stroke-miterlimit:10;stroke-dasharray:none;stroke-opacity:1"
       d="m 25.35,84.8926 c 0,-2.8176 -2.2848,-5.1024 -5.1023,-5.1024 -2.8176,0 -5.1024,2.2848 -5.1024,5.1024 0,2.8176 2.2848,5.1019 5.1024,5.1019 2.8175,0 5.1023,-2.2843 5.1023,-5.1019 z" /><path
       inkscape:connector-curvature="0"
       id="path76"
       style="fill:#ffffff;fill-opacity:1;fill-rule:evenodd;stroke:none"
       d="m 116.874,22.3434 c 0,-2.8176 -2.284,-5.1024 -5.102,-5.1024 -2.817,0 -5.102,2.2848 -5.102,5.1024 0,2.8175 2.285,5.1023 5.102,5.1023 2.818,0 5.102,-2.2848 5.102,-5.1023" /><path
       inkscape:connector-curvature="0"
       id="path78"
       style="fill:none;stroke:#000000;stroke-width:0.47242498;stroke-linecap:butt;stroke-linejoin:miter;stroke-miterlimit:10;stroke-dasharray:none;stroke-opacity:1"
       d="m 116.874,22.3434 c 0,-2.8176 -2.284,-5.1024 -5.102,-5.1024 -2.817,0 -5.102,2.2848 -5.102,5.1024 0,2.8175 2.285,5.1023 5.102,5.1023 2.818,0 5.102,-2.2848 5.102,-5.1023 z" /><path
       inkscape:connector-curvature="0"
       id="path80"
       style="fill:#8c1515;fill-opacity:1;fill-rule:evenodd;stroke:none"
       d="m 178.227,98.5613 c 0,-2.8175 -2.285,-5.1023 -5.103,-5.1023 -2.817,0 -5.102,2.2848 -5.102,5.1023 0,2.8177 2.285,5.1017 5.102,5.1017 2.818,0 5.103,-2.284 5.103,-5.1017" /><path
       inkscape:connector-curvature="0"
       id="path82"
       style="fill:none;stroke:#000000;stroke-width:0.47242498;stroke-linecap:butt;stroke-linejoin:miter;stroke-miterlimit:10;stroke-dasharray:none;stroke-opacity:1"
       d="m 178.227,98.5613 c 0,-2.8175 -2.285,-5.1023 -5.103,-5.1023 -2.817,0 -5.102,2.2848 -5.102,5.1023 0,2.8177 2.285,5.1017 5.102,5.1017 2.818,0 5.103,-2.284 5.103,-5.1017 z" /><path
       inkscape:connector-curvature="0"
       id="path84"
       style="fill:#000000;fill-opacity:1;fill-rule:evenodd;stroke:none"
       d="m 111.646,197.519 c 0,-1.531 -1.241,-2.772 -2.771,-2.772 -1.531,0 -2.772,1.241 -2.772,2.772 0,1.53 1.241,2.771 2.772,2.771 1.53,0 2.771,-1.241 2.771,-2.771" /><path
       inkscape:connector-curvature="0"
       id="path86"
       style="fill:none;stroke:#000000;stroke-width:0.47242498;stroke-linecap:butt;stroke-linejoin:miter;stroke-miterlimit:10;stroke-dasharray:none;stroke-opacity:1"
       d="m 111.646,197.519 c 0,-1.531 -1.241,-2.772 -2.771,-2.772 -1.531,0 -2.772,1.241 -2.772,2.772 0,1.53 1.241,2.771 2.772,2.771 1.53,0 2.771,-1.241 2.771,-2.771 z" /><path
       inkscape:connector-curvature="0"
       id="path88"
       style="fill:#000000;fill-opacity:1;fill-rule:evenodd;stroke:none"
       d="m 220.115,34.3746 c 0,-1.5305 -1.241,-2.7719 -2.772,-2.7719 -1.53,0 -2.771,1.2414 -2.771,2.7719 0,1.5305 1.241,2.7715 2.771,2.7715 1.531,0 2.772,-1.241 2.772,-2.7715" /><path
       inkscape:connector-curvature="0"
       id="path90"
       style="fill:none;stroke:#000000;stroke-width:0.47242498;stroke-linecap:butt;stroke-linejoin:miter;stroke-miterlimit:10;stroke-dasharray:none;stroke-opacity:1"
       d="m 220.115,34.3746 c 0,-1.5305 -1.241,-2.7719 -2.772,-2.7719 -1.53,0 -2.771,1.2414 -2.771,2.7719 0,1.5305 1.241,2.7715 2.771,2.7715 1.531,0 2.772,-1.241 2.772,-2.7715 z" /></g></svg>