<?xml version="1.0" encoding="UTF-8" standalone="no"?>
<!-- Created with Inkscape (http://www.inkscape.org/) -->

<svg
   xmlns:dc="http://purl.org/dc/elements/1.1/"
   xmlns:cc="http://creativecommons.org/ns#"
   xmlns:rdf="http://www.w3.org/1999/02/22-rdf-syntax-ns#"
   xmlns:svg="http://www.w3.org/2000/svg"
   xmlns="http://www.w3.org/2000/svg"
   xmlns:sodipodi="http://sodipodi.sourceforge.net/DTD/sodipodi-0.dtd"
   xmlns:inkscape="http://www.inkscape.org/namespaces/inkscape"
   id="svg2"
   version="1.1"
   inkscape:version="0.91 r13725"
   xml:space="preserve"
   width="650"
   height="347.5"
   viewBox="0 0 650 347.5"
   sodipodi:docname="riemann.svg"><metadata
     id="metadata8"><rdf:RDF><cc:Work
         rdf:about=""><dc:format>image/svg+xml</dc:format><dc:type
           rdf:resource="http://purl.org/dc/dcmitype/StillImage" /><dc:title></dc:title></cc:Work></rdf:RDF></metadata><defs
     id="defs6"><clipPath
       clipPathUnits="userSpaceOnUse"
       id="clipPath22"><path
         d="M 0,2780 0,0 l 5200,0 0,2780 -5200,0 z m 4060.75,-2242.402 10.08,-116.532 37.8,3.153 -10.08,115.898 0,0 -10.71,-95.742 -27.09,93.223 z M 1839.1,2310.77 l -115.28,-18.9 6.31,-37.79 114.64,18.89 0,0 -95.75,3.16 90.08,34.64 z"
         id="path24"
         inkscape:connector-curvature="0"
         style="clip-rule:evenodd" /></clipPath><clipPath
       clipPathUnits="userSpaceOnUse"
       id="clipPath48"><path
         d="M 0,2780 0,0 l 5200,0 0,2780 -5200,0 z m 4935.69,-2386.02 154.95,0 0,75.59 -154.95,0 0,0 85.03,-37.793 -85.03,-37.797 z"
         id="path50"
         inkscape:connector-curvature="0"
         style="clip-rule:evenodd" /></clipPath><clipPath
       clipPathUnits="userSpaceOnUse"
       id="clipPath62"><path
         d="M 0,2780 0,0 l 5200,0 0,2780 -5200,0 z m 2426.16,-1076.46 0,154.96 -75.58,0 0,-154.96 0,0 37.79,85.04 37.79,-85.04 z"
         id="path64"
         inkscape:connector-curvature="0"
         style="clip-rule:evenodd" /></clipPath></defs><sodipodi:namedview
     pagecolor="#ffffff"
     bordercolor="#666666"
     borderopacity="1"
     objecttolerance="10"
     gridtolerance="10"
     guidetolerance="10"
     inkscape:pageopacity="0"
     inkscape:pageshadow="2"
     inkscape:window-width="1920"
     inkscape:window-height="1011"
     id="namedview4"
     showgrid="false"
     inkscape:zoom="1.6274335"
     inkscape:cx="243.68803"
     inkscape:cy="208.8287"
     inkscape:window-x="1280"
     inkscape:window-y="0"
     inkscape:window-maximized="1"
     inkscape:current-layer="g10" /><g
     id="g10"
     inkscape:groupmode="layer"
     inkscape:label="ink_ext_XXXXXX"
     transform="matrix(1.25,0,0,-1.25,0,347.5)"><path
       inkscape:connector-curvature="0"
       id="path14"
       style="fill:#d2c295;fill-opacity:1;fill-rule:evenodd;stroke:none"
       d="m 51.7566,34.6738 394.003,0 0,17.0074 -394.003,0 0,-17.0074 z" /><path
       inkscape:connector-curvature="0"
       id="path16"
       style="fill:none;stroke:#000000;stroke-width:0.47242498;stroke-linecap:butt;stroke-linejoin:miter;stroke-miterlimit:10;stroke-dasharray:none;stroke-opacity:1"
       d="m 51.7566,34.6738 394.003,0 0,17.0074 -394.003,0 0,-17.0074 z" /><g
       id="g18"
       transform="scale(0.1,0.1)"><g
         clip-path="url(#clipPath22)"
         id="g20"><path
           inkscape:connector-curvature="0"
           id="path26"
           style="fill:none;stroke:#000000;stroke-width:4.72424984;stroke-linecap:butt;stroke-linejoin:miter;stroke-miterlimit:10;stroke-dasharray:none;stroke-opacity:1"
           d="m 1736.44,2274.23 c 119.91,22.25 241.61,33.45 363.56,33.45 1055.16,0 1927.39,-822.58 1989.15,-1875.926" /></g></g><path
       inkscape:connector-curvature="0"
       id="path28"
       style="fill:#000000;fill-opacity:1;fill-rule:evenodd;stroke:none"
       d="m 183.91,231.077 -9.008,-3.464 9.575,-0.316 -2.142,1.575 1.575,2.205" /><path
       inkscape:connector-curvature="0"
       id="path30"
       style="fill:none;stroke:#000000;stroke-width:0.47242498;stroke-linecap:butt;stroke-linejoin:miter;stroke-miterlimit:10;stroke-dasharray:none;stroke-opacity:1"
       d="m 183.91,231.077 -9.008,-3.464 9.575,-0.316 -2.142,1.575 1.575,2.205 z" /><path
       inkscape:connector-curvature="0"
       id="path32"
       style="fill:#000000;fill-opacity:1;fill-rule:evenodd;stroke:none"
       d="m 406.075,53.7598 2.709,-9.3223 1.071,9.5742 -1.701,-2.0156 -2.079,1.7637" /><path
       inkscape:connector-curvature="0"
       id="path34"
       style="fill:none;stroke:#000000;stroke-width:0.47242498;stroke-linecap:butt;stroke-linejoin:miter;stroke-miterlimit:10;stroke-dasharray:none;stroke-opacity:1"
       d="m 406.075,53.7598 2.709,-9.3223 1.071,9.5742 -1.701,-2.0156 -2.079,1.7637 z" /><path
       inkscape:connector-curvature="0"
       id="path36"
       style="fill:#ffffff;fill-opacity:1;fill-rule:evenodd;stroke:none"
       d="m 117.392,43.1777 c 0,-4.9398 -4.004,-8.9445 -8.944,-8.9445 -4.94,0 -8.9449,4.0047 -8.9449,8.9445 0,4.9399 4.0049,8.9446 8.9449,8.9446 4.94,0 8.944,-4.0047 8.944,-8.9446" /><path
       inkscape:connector-curvature="0"
       id="path38"
       style="fill:none;stroke:#000000;stroke-width:0.47242498;stroke-linecap:butt;stroke-linejoin:miter;stroke-miterlimit:10;stroke-dasharray:none;stroke-opacity:1"
       d="m 117.392,43.1777 c 0,-4.9398 -4.004,-8.9445 -8.944,-8.9445 -4.94,0 -8.9449,4.0047 -8.9449,8.9445 0,4.9399 4.0049,8.9446 8.9449,8.9446 4.94,0 8.944,-4.0047 8.944,-8.9446 z" /><path
       inkscape:connector-curvature="0"
       id="path40"
       style="fill:#ffffff;fill-opacity:1;fill-rule:evenodd;stroke:none"
       d="m 361.164,43.1777 c 0,-4.9398 -4.005,-8.9445 -8.945,-8.9445 -4.94,0 -8.944,4.0047 -8.944,8.9445 0,4.9399 4.004,8.9446 8.944,8.9446 4.94,0 8.945,-4.0047 8.945,-8.9446" /><path
       inkscape:connector-curvature="0"
       id="path42"
       style="fill:none;stroke:#000000;stroke-width:0.47242498;stroke-linecap:butt;stroke-linejoin:miter;stroke-miterlimit:10;stroke-dasharray:none;stroke-opacity:1"
       d="m 361.164,43.1777 c 0,-4.9398 -4.005,-8.9445 -8.945,-8.9445 -4.94,0 -8.944,4.0047 -8.944,8.9445 0,4.9399 4.004,8.9446 8.944,8.9446 4.94,0 8.945,-4.0047 8.945,-8.9446 z" /><g
       id="g44"
       transform="scale(0.1,0.1)"><g
         clip-path="url(#clipPath48)"
         id="g46"><path
           inkscape:connector-curvature="0"
           id="path52"
           style="fill:none;stroke:#000000;stroke-width:4.72424984;stroke-linecap:butt;stroke-linejoin:miter;stroke-miterlimit:10;stroke-dasharray:none;stroke-opacity:1"
           d="m 7.34766,431.777 5073.84234,0" /></g></g><path
       inkscape:connector-curvature="0"
       id="path54"
       style="fill:#000000;fill-opacity:1;fill-rule:evenodd;stroke:none"
       d="m 493.569,39.398 8.503,3.7797 -8.503,3.7793 0,-7.559" /><path
       inkscape:connector-curvature="0"
       id="path56"
       style="fill:none;stroke:#000000;stroke-width:4.72424984;stroke-linecap:butt;stroke-linejoin:miter;stroke-miterlimit:10;stroke-dasharray:none;stroke-opacity:1"
       d="m 493.569,39.398 8.503,3.7797 -8.503,3.7793 0,-7.559 z" /><g
       id="g58"
       transform="scale(0.1,0.1)"><g
         clip-path="url(#clipPath62)"
         id="g60"><path
           inkscape:connector-curvature="0"
           id="path66"
           style="fill:none;stroke:#000000;stroke-width:4.72424984;stroke-linecap:butt;stroke-linejoin:miter;stroke-miterlimit:10;stroke-dasharray:none;stroke-opacity:1"
           d="m 2388.37,431.777 0,1417.273" /></g></g><path
       inkscape:connector-curvature="0"
       id="path68"
       style="fill:#000000;fill-opacity:1;fill-rule:evenodd;stroke:none"
       d="m 242.616,170.354 -3.779,8.504 -3.779,-8.504 7.558,0" /><path
       inkscape:connector-curvature="0"
       id="path70"
       style="fill:none;stroke:#000000;stroke-width:4.72424984;stroke-linecap:butt;stroke-linejoin:miter;stroke-miterlimit:10;stroke-dasharray:none;stroke-opacity:1"
       d="m 242.616,170.354 -3.779,8.504 -3.779,-8.504 7.558,0 z" /><path
       inkscape:connector-curvature="0"
       id="path72"
       style="fill:none;stroke:#000000;stroke-width:1.88969994;stroke-linecap:butt;stroke-linejoin:miter;stroke-miterlimit:10;stroke-dasharray:8.50365, 3.40146, 0.94485, 2.5196, 0.94485, 2.5196, 0.94485, 3.40146;stroke-dashoffset:0;stroke-opacity:1"
       d="m 238.837,85.6957 0,-76.53281" /><path
       inkscape:connector-curvature="0"
       id="path74"
       style="fill:none;stroke:#000000;stroke-width:0.47242498;stroke-linecap:butt;stroke-linejoin:miter;stroke-miterlimit:10;stroke-dasharray:3.7794;stroke-dashoffset:0;stroke-opacity:1"
       d="M 238.837,43.1777 159.47,261.438" /><path
       inkscape:connector-curvature="0"
       id="path76"
       style="fill:none;stroke:#000000;stroke-width:0.47242498;stroke-linecap:butt;stroke-linejoin:miter;stroke-miterlimit:10;stroke-dasharray:none;stroke-opacity:1"
       d="M 238.837,43.1777 116.952,213.251" /><path
       inkscape:connector-curvature="0"
       id="path78"
       style="fill:none;stroke:#000000;stroke-width:0.47242498;stroke-linecap:butt;stroke-linejoin:miter;stroke-miterlimit:10;stroke-dasharray:none;stroke-opacity:1"
       d="M 238.837,43.1777 102.779,199.078" /><path
       inkscape:connector-curvature="0"
       id="path80"
       style="fill:none;stroke:#000000;stroke-width:0.47242498;stroke-linecap:butt;stroke-linejoin:miter;stroke-miterlimit:10;stroke-dasharray:none;stroke-opacity:1"
       d="M 238.837,43.1777 85.7715,182.071" /><path
       inkscape:connector-curvature="0"
       id="path82"
       style="fill:none;stroke:#000000;stroke-width:0.47242498;stroke-linecap:butt;stroke-linejoin:miter;stroke-miterlimit:10;stroke-dasharray:none;stroke-opacity:1"
       d="m 238.585,184.905 0.504,0" /><g
       id="g84"><text
         id="text86"
         style="font-variant:normal;font-weight:normal;font-size:29.99900055px;font-family:Times;-inkscape-font-specification:Times-Roman;writing-mode:lr-tb;fill:#000000;fill-opacity:1;fill-rule:nonzero;stroke:none"
         transform="matrix(1,0,0,-1,105.613,9.16289)"><tspan
           id="tspan88"
           sodipodi:role="line"
           y="0"
           x="0 243.77127">ij</tspan></text>
<text
         id="text90"
         style="font-variant:normal;font-weight:normal;font-size:24.99950027px;font-family:Times;-inkscape-font-specification:Times-Roman;writing-mode:lr-tb;fill:#000000;fill-opacity:1;fill-rule:nonzero;stroke:none"
         transform="matrix(1,0,0,-1,236.002,187.73989)"><tspan
           id="tspan92"
           y="0"
           x="0">t</tspan><tspan
           id="tspan94"
           y="164.40401"
           x="269.28201">x</tspan></text>
<text
         id="text96"
         style="font-variant:normal;font-weight:normal;font-size:19.9993px;font-family:Times;-inkscape-font-specification:Times-Roman;writing-mode:lr-tb;fill:#000000;fill-opacity:1;fill-rule:nonzero;stroke:none"
         transform="matrix(1,0,0,-1,289.858,122.54529)"><tspan
           id="tspan98"
           sodipodi:role="line"
           y="0"
           x="0 11.119611 25.559105 37.778679 44.438446">SOLID</tspan><tspan
           id="tspan100"
           sodipodi:role="line"
           y="-79.367599"
           x="-232.433 -213.55367 -204.67397 -194.67432">Wave</tspan><tspan
           id="tspan102"
           sodipodi:role="line"
           y="-138.89301"
           x="-164.4037 -151.06416 -141.06451 -131.06487 -125.50506 -116.62537 -107.74568 -96.374481 -86.374832 -80.815025 -73.035301 -64.155609 -54.15596 -44.156307 -38.596504 -33.036697 -23.037048 -13.037398 -7.4775925 -1.9177872">Contactdiscontinuity</tspan><tspan
           id="tspan104"
           sodipodi:role="line"
           y="-122.5157"
           x="-98.894302 -92.234535 -77.795036 -68.915352 -63.355545 -57.795738">(wall)</tspan></text>
<text
         id="text106"
         style="font-variant:normal;font-weight:normal;font-size:24.99950027px;font-family:Times;-inkscape-font-specification:Times-Roman;writing-mode:lr-tb;fill:#000000;fill-opacity:1;fill-rule:nonzero;stroke:none"
         transform="matrix(1,0,0,-1,91.6285,103.89999)"><tspan
           id="tspan108"
           y="0"
           x="0">W</tspan></text>
<text
         id="text110"
         style="font-variant:normal;font-weight:normal;font-size:17.99939919px;font-family:Times;-inkscape-font-specification:Times-Roman;writing-mode:lr-tb;fill:#000000;fill-opacity:1;fill-rule:nonzero;stroke:none"
         transform="matrix(1,0,0,-1,110.5258,93.19179)"><tspan
           id="tspan112"
           y="0"
           x="0">i</tspan></text>
<text
         id="text114"
         style="font-variant:normal;font-weight:normal;font-size:24.99950027px;font-family:Times;-inkscape-font-specification:Times-Roman;writing-mode:lr-tb;fill:#000000;fill-opacity:1;fill-rule:nonzero;stroke:none"
         transform="matrix(1,0,0,-1,143.9102,179.48789)"><tspan
           id="tspan116"
           y="0"
           x="0">W</tspan></text>
<text
         id="text118"
         style="font-variant:normal;font-weight:normal;font-size:17.99939919px;font-family:Times;-inkscape-font-specification:Times-Roman;writing-mode:lr-tb;fill:#000000;fill-opacity:1;fill-rule:nonzero;stroke:none"
         transform="matrix(1,0,0,-1,165.327,192.71599)"><tspan
           id="tspan120"
           y="0"
           x="0">*</tspan><tspan
           id="tspan122"
           y="20.786699"
           x="-2.5195301">b</tspan></text>
</g></g></svg>