<?xml version="1.0" encoding="UTF-8" standalone="no"?>
<!-- Created with Inkscape (http://www.inkscape.org/) -->

<svg
   xmlns:dc="http://purl.org/dc/elements/1.1/"
   xmlns:cc="http://creativecommons.org/ns#"
   xmlns:rdf="http://www.w3.org/1999/02/22-rdf-syntax-ns#"
   xmlns:svg="http://www.w3.org/2000/svg"
   xmlns="http://www.w3.org/2000/svg"
   xmlns:sodipodi="http://sodipodi.sourceforge.net/DTD/sodipodi-0.dtd"
   xmlns:inkscape="http://www.inkscape.org/namespaces/inkscape"
   id="svg2"
   version="1.1"
   inkscape:version="0.91 r13725"
   xml:space="preserve"
   width="336.31921"
   height="69.381516"
   viewBox="0 0 336.31921 69.381516"
   sodipodi:docname="verificationsetup.svg"><metadata
     id="metadata8"><rdf:RDF><cc:Work
         rdf:about=""><dc:format>image/svg+xml</dc:format><dc:type
           rdf:resource="http://purl.org/dc/dcmitype/StillImage" /><dc:title></dc:title></cc:Work></rdf:RDF></metadata><defs
     id="defs6"><marker
       inkscape:isstock="true"
       style="overflow:visible"
       id="marker9094"
       refX="0"
       refY="0"
       orient="auto"
       inkscape:stockid="Arrow2Mend"><path
         transform="scale(-0.6,-0.6)"
         d="M 8.7185878,4.0337352 -2.2072895,0.01601326 8.7185884,-4.0017078 c -1.7454984,2.3720609 -1.7354408,5.6174519 -6e-7,8.035443 z"
         style="fill:#b3995d;fill-opacity:1;fill-rule:evenodd;stroke:#b3995d;stroke-width:0.625;stroke-linejoin:round;stroke-opacity:1"
         id="path9096"
         inkscape:connector-curvature="0" /></marker><marker
       inkscape:isstock="true"
       style="overflow:visible"
       id="marker8988"
       refX="0"
       refY="0"
       orient="auto"
       inkscape:stockid="DotS"><path
         transform="matrix(0.2,0,0,0.2,1.48,0.2)"
         style="fill:#b3995d;fill-opacity:1;fill-rule:evenodd;stroke:#b3995d;stroke-width:1pt;stroke-opacity:1"
         d="m -2.5,-1 c 0,2.76 -2.24,5 -5,5 -2.76,0 -5,-2.24 -5,-5 0,-2.76 2.24,-5 5,-5 2.76,0 5,2.24 5,5 z"
         id="path8990"
         inkscape:connector-curvature="0" /></marker><marker
       inkscape:stockid="Arrow2Mend"
       orient="auto"
       refY="0"
       refX="0"
       id="marker8646"
       style="overflow:visible"
       inkscape:isstock="true"
       inkscape:collect="always"><path
         id="path8648"
         style="fill:#b3995d;fill-opacity:1;fill-rule:evenodd;stroke:#b3995d;stroke-width:0.625;stroke-linejoin:round;stroke-opacity:1"
         d="M 8.7185878,4.0337352 -2.2072895,0.01601326 8.7185884,-4.0017078 c -1.7454984,2.3720609 -1.7354408,5.6174519 -6e-7,8.035443 z"
         transform="scale(-0.6,-0.6)"
         inkscape:connector-curvature="0" /></marker><marker
       inkscape:stockid="DotS"
       orient="auto"
       refY="0"
       refX="0"
       id="marker8552"
       style="overflow:visible"
       inkscape:isstock="true"
       inkscape:collect="always"><path
         id="path8554"
         d="m -2.5,-1 c 0,2.76 -2.24,5 -5,5 -2.76,0 -5,-2.24 -5,-5 0,-2.76 2.24,-5 5,-5 2.76,0 5,2.24 5,5 z"
         style="fill:#b3995d;fill-opacity:1;fill-rule:evenodd;stroke:#b3995d;stroke-width:1pt;stroke-opacity:1"
         transform="matrix(0.2,0,0,0.2,1.48,0.2)"
         inkscape:connector-curvature="0" /></marker><marker
       inkscape:isstock="true"
       style="overflow:visible"
       id="marker7754"
       refX="0"
       refY="0"
       orient="auto"
       inkscape:stockid="Arrow2Mend"
       inkscape:collect="always"><path
         transform="scale(-0.6,-0.6)"
         d="M 8.7185878,4.0337352 -2.2072895,0.01601326 8.7185884,-4.0017078 c -1.7454984,2.3720609 -1.7354408,5.6174519 -6e-7,8.035443 z"
         style="fill:#b3995d;fill-opacity:1;fill-rule:evenodd;stroke:#b3995d;stroke-width:0.625;stroke-linejoin:round;stroke-opacity:1"
         id="path7756"
         inkscape:connector-curvature="0" /></marker><marker
       inkscape:isstock="true"
       style="overflow:visible"
       id="marker7672"
       refX="0"
       refY="0"
       orient="auto"
       inkscape:stockid="DotS"
       inkscape:collect="always"><path
         transform="matrix(0.2,0,0,0.2,1.48,0.2)"
         style="fill:#b3995d;fill-opacity:1;fill-rule:evenodd;stroke:#b3995d;stroke-width:1pt;stroke-opacity:1"
         d="m -2.5,-1 c 0,2.76 -2.24,5 -5,5 -2.76,0 -5,-2.24 -5,-5 0,-2.76 2.24,-5 5,-5 2.76,0 5,2.24 5,5 z"
         id="path7674"
         inkscape:connector-curvature="0" /></marker><marker
       inkscape:stockid="Arrow2Mend"
       orient="auto"
       refY="0"
       refX="0"
       id="marker7102"
       style="overflow:visible"
       inkscape:isstock="true"
       inkscape:collect="always"><path
         id="path7104"
         style="fill:#b3995d;fill-opacity:1;fill-rule:evenodd;stroke:#b3995d;stroke-width:0.625;stroke-linejoin:round;stroke-opacity:1"
         d="M 8.7185878,4.0337352 -2.2072895,0.01601326 8.7185884,-4.0017078 c -1.7454984,2.3720609 -1.7354408,5.6174519 -6e-7,8.035443 z"
         transform="scale(-0.6,-0.6)"
         inkscape:connector-curvature="0" /></marker><marker
       inkscape:stockid="DotS"
       orient="auto"
       refY="0"
       refX="0"
       id="marker7032"
       style="overflow:visible"
       inkscape:isstock="true"
       inkscape:collect="always"><path
         id="path7034"
         d="m -2.5,-1 c 0,2.76 -2.24,5 -5,5 -2.76,0 -5,-2.24 -5,-5 0,-2.76 2.24,-5 5,-5 2.76,0 5,2.24 5,5 z"
         style="fill:#b3995d;fill-opacity:1;fill-rule:evenodd;stroke:#b3995d;stroke-width:1pt;stroke-opacity:1"
         transform="matrix(0.2,0,0,0.2,1.48,0.2)"
         inkscape:connector-curvature="0" /></marker><marker
       inkscape:isstock="true"
       style="overflow:visible"
       id="marker6594"
       refX="0"
       refY="0"
       orient="auto"
       inkscape:stockid="Arrow2Mend"
       inkscape:collect="always"><path
         transform="scale(-0.6,-0.6)"
         d="M 8.7185878,4.0337352 -2.2072895,0.01601326 8.7185884,-4.0017078 c -1.7454984,2.3720609 -1.7354408,5.6174519 -6e-7,8.035443 z"
         style="fill:#b3995d;fill-opacity:1;fill-rule:evenodd;stroke:#b3995d;stroke-width:0.625;stroke-linejoin:round;stroke-opacity:1"
         id="path6596"
         inkscape:connector-curvature="0" /></marker><marker
       inkscape:isstock="true"
       style="overflow:visible"
       id="marker6536"
       refX="0"
       refY="0"
       orient="auto"
       inkscape:stockid="DotS"
       inkscape:collect="always"><path
         transform="matrix(0.2,0,0,0.2,1.48,0.2)"
         style="fill:#b3995d;fill-opacity:1;fill-rule:evenodd;stroke:#b3995d;stroke-width:1pt;stroke-opacity:1"
         d="m -2.5,-1 c 0,2.76 -2.24,5 -5,5 -2.76,0 -5,-2.24 -5,-5 0,-2.76 2.24,-5 5,-5 2.76,0 5,2.24 5,5 z"
         id="path6538"
         inkscape:connector-curvature="0" /></marker><marker
       inkscape:stockid="Arrow2Mend"
       orient="auto"
       refY="0"
       refX="0"
       id="marker5954"
       style="overflow:visible"
       inkscape:isstock="true"
       inkscape:collect="always"><path
         id="path5956"
         style="fill:#b3995d;fill-opacity:1;fill-rule:evenodd;stroke:#b3995d;stroke-width:0.625;stroke-linejoin:round;stroke-opacity:1"
         d="M 8.7185878,4.0337352 -2.2072895,0.01601326 8.7185884,-4.0017078 c -1.7454984,2.3720609 -1.7354408,5.6174519 -6e-7,8.035443 z"
         transform="scale(-0.6,-0.6)"
         inkscape:connector-curvature="0" /></marker><marker
       inkscape:stockid="DotS"
       orient="auto"
       refY="0"
       refX="0"
       id="marker5908"
       style="overflow:visible"
       inkscape:isstock="true"
       inkscape:collect="always"><path
         id="path5910"
         d="m -2.5,-1 c 0,2.76 -2.24,5 -5,5 -2.76,0 -5,-2.24 -5,-5 0,-2.76 2.24,-5 5,-5 2.76,0 5,2.24 5,5 z"
         style="fill:#b3995d;fill-opacity:1;fill-rule:evenodd;stroke:#b3995d;stroke-width:1pt;stroke-opacity:1"
         transform="matrix(0.2,0,0,0.2,1.48,0.2)"
         inkscape:connector-curvature="0" /></marker><marker
       inkscape:isstock="true"
       style="overflow:visible"
       id="marker5122"
       refX="0"
       refY="0"
       orient="auto"
       inkscape:stockid="Arrow2Mend"
       inkscape:collect="always"><path
         transform="scale(-0.6,-0.6)"
         d="M 8.7185878,4.0337352 -2.2072895,0.01601326 8.7185884,-4.0017078 c -1.7454984,2.3720609 -1.7354408,5.6174519 -6e-7,8.035443 z"
         style="fill:#b3995d;fill-opacity:1;fill-rule:evenodd;stroke:#b3995d;stroke-width:0.625;stroke-linejoin:round;stroke-opacity:1"
         id="path5124"
         inkscape:connector-curvature="0" /></marker><marker
       inkscape:isstock="true"
       style="overflow:visible"
       id="marker5088"
       refX="0"
       refY="0"
       orient="auto"
       inkscape:stockid="DotS"
       inkscape:collect="always"><path
         transform="matrix(0.2,0,0,0.2,1.48,0.2)"
         style="fill:#b3995d;fill-opacity:1;fill-rule:evenodd;stroke:#b3995d;stroke-width:1pt;stroke-opacity:1"
         d="m -2.5,-1 c 0,2.76 -2.24,5 -5,5 -2.76,0 -5,-2.24 -5,-5 0,-2.76 2.24,-5 5,-5 2.76,0 5,2.24 5,5 z"
         id="path5090"
         inkscape:connector-curvature="0" /></marker><marker
       inkscape:stockid="DotS"
       orient="auto"
       refY="0"
       refX="0"
       id="DotS"
       style="overflow:visible"
       inkscape:isstock="true"
       inkscape:collect="always"><path
         id="path4279"
         d="m -2.5,-1 c 0,2.76 -2.24,5 -5,5 -2.76,0 -5,-2.24 -5,-5 0,-2.76 2.24,-5 5,-5 2.76,0 5,2.24 5,5 z"
         style="fill:#b3995d;fill-opacity:1;fill-rule:evenodd;stroke:#b3995d;stroke-width:1pt;stroke-opacity:1"
         transform="matrix(0.2,0,0,0.2,1.48,0.2)"
         inkscape:connector-curvature="0" /></marker><marker
       inkscape:stockid="Arrow2Mend"
       orient="auto"
       refY="0"
       refX="0"
       id="Arrow2Mend"
       style="overflow:visible"
       inkscape:isstock="true"
       inkscape:collect="always"><path
         id="path4239"
         style="fill:#b3995d;fill-opacity:1;fill-rule:evenodd;stroke:#b3995d;stroke-width:0.625;stroke-linejoin:round;stroke-opacity:1"
         d="M 8.7185878,4.0337352 -2.2072895,0.01601326 8.7185884,-4.0017078 c -1.7454984,2.3720609 -1.7354408,5.6174519 -6e-7,8.035443 z"
         transform="scale(-0.6,-0.6)"
         inkscape:connector-curvature="0" /></marker><marker
       inkscape:stockid="Arrow1Lend"
       orient="auto"
       refY="0"
       refX="0"
       id="Arrow1Lend"
       style="overflow:visible"
       inkscape:isstock="true"><path
         id="path4215"
         d="M 0,0 5,-5 -12.5,0 5,5 0,0 Z"
         style="fill:#000000;fill-opacity:1;fill-rule:evenodd;stroke:#000000;stroke-width:1pt;stroke-opacity:1"
         transform="matrix(-0.8,0,0,-0.8,-10,0)"
         inkscape:connector-curvature="0" /></marker><clipPath
       clipPathUnits="userSpaceOnUse"
       id="clipPath44"><path
         d="m -8.27058,-27.7755 181.94294,0 0,96.90145 -181.94294,0 0,-96.90145 z"
         id="path46"
         inkscape:connector-curvature="0" /></clipPath></defs><sodipodi:namedview
     pagecolor="#ffffff"
     bordercolor="#666666"
     borderopacity="1"
     objecttolerance="10"
     gridtolerance="10"
     guidetolerance="10"
     inkscape:pageopacity="0"
     inkscape:pageshadow="2"
     inkscape:window-width="1920"
     inkscape:window-height="1011"
     id="namedview4"
     showgrid="false"
     fit-margin-top="0"
     fit-margin-left="0"
     fit-margin-right="0"
     fit-margin-bottom="0"
     inkscape:zoom="1.626901"
     inkscape:cx="222.69225"
     inkscape:cy="106.45654"
     inkscape:window-x="1280"
     inkscape:window-y="0"
     inkscape:window-maximized="1"
     inkscape:current-layer="g10" /><g
     id="g10"
     inkscape:groupmode="layer"
     inkscape:label="verificationsetup"
     transform="matrix(1.25,0,0,-1.25,-7.3486812,101.11145)"><g
       id="g12"><g
         id="g14"><g
           id="g16" /><g
           id="g18" /><g
           id="g20"><g
             id="g22" /></g><g
           id="g24" /><g
           id="g26" /><g
           id="g28" /><g
           id="g30" /><g
           id="g32"><g
             id="g34"
             transform="translate(8.27,27.775)"><g
               id="g36"><g
                 id="g38"><g
                   id="g40"><g
                     id="g42"
                     clip-path="url(#clipPath44)"><g
                       id="g48"><path
                         d="m 0,0 1.6678,0 1.66779,0 1.68159,0 1.6678,0 1.66779,0 1.66781,0 1.66779,0 1.68159,0 1.66782,0 1.66777,0 1.66782,0 1.68159,0 1.66777,0 1.66783,0 1.66777,0 1.66782,0 1.6816,0 1.66781,0 1.66777,0 1.66783,0 1.66777,0 1.6816,0 1.66781,0 1.66778,0 1.66781,0 1.6816,0 1.66778,0 1.66782,0 1.66778,0 1.6678,0 1.6816,0 1.66779,0 1.66783,0 1.6678,0 1.66778,0 1.6816,0 1.6678,0 1.66779,0 1.66781,0 1.66779,0 1.68159,0 1.66781,0 1.66778,0 1.66782,0 1.68159,0 1.66777,0 1.66783,0 1.66777,0 1.66782,0 1.68159,0 1.66782,0 1.66777,0 1.66783,0 1.66777,0 1.68159,0 1.66782,0 1.66779,0 1.6678,0 1.68159,0 1.66779,0 1.66781,0 1.66779,0 1.6678,0 1.68161,0 1.66777,0 1.66783,0 1.6678,0 1.66779,0 1.68159,0 1.66781,0 1.66778,0 1.66782,0 1.66778,0 1.6816,0 1.66781,0 1.66777,0 1.66782,0 1.68159,0 1.66778,0 1.66783,0 1.66778,0 1.6678,0 1.6816,0 1.66781,0 1.66777,0 1.66784,0 1.66777,0 1.68161,0 1.6678,0 1.66778,0 1.6678,0 1.6816,0 1.66778,0 1.66782,0 1.66779,0 1.6678,0 1.68161,0 1.66777,0 1.66783,0 0,0 0,0.41348 0,0.42731 0,0.4135 0,0.41351 0,0.42728 0,0.41351 0,0.41348 0,0.41352 0,0.42727 0,0.41352 0,0.41349 0,0.42731 0,0.4135 0,0.41352 0,0.42728 0,0.4135 0,0.41348 0,0.41352 0,0.42727 0,0.41352 0,0.41351 0,0.42729 0,0.41352 0,0.41349 0,0.4273 0,0.41349 0,0.41349 0,0.41351 0,0.42728 0,0.41351 0,0.41351 0,0.42729 0,0.41352 0,0.41348 0,0.42731 0,0.41351 0,0.4135 0,0.42729 0,0.4135 0,0.41348 0,0.41351 0,0.42728 0,0.41351 0,0.41352 0,0.42729 0,0.41351 0,0.4135 0,0.42729 0,0.41352 0,0.41346 0,0.41352 0,0.42727 0,0.41352 0,0.41351 0,0.42729 0,0.41351 0,0.41352 0,0.42727 0,0.41352 0,0.41346 0,0.41352 0,0.42727 0,0.41352 0,0.41351 0,0.42729 0,0.41352 0,0.41349 0,0.4273 0,0.41351 0,0.41351 0,0.42728 0,0.41351 0,0.41347 0,0.41351 0,0.42728 0,0.41351 0,0.41352 0,0.42729 0,0.41351 0,0.41351 0,0.42728 0,0.41351 0,0.41349 0,0.41349 0,0.4273 0,0.41349 0,0.41352 0,0.42729 0,0.41351 0,0.41351 0,0.42728 0,0.41351 0,0.41349 0,0.4135 0,0.42729 0,0.4135 0,0.41351 0,0.42731 0,0.41349 0,0 -1.66783,0 -1.66777,0 -1.68161,0 -1.6678,0 -1.66779,0 -1.66782,0 -1.66778,0 -1.6816,0 -1.6678,0 -1.66778,0 -1.6678,0 -1.68161,0 -1.66777,0 -1.66784,0 -1.66777,0 -1.66781,0 -1.6816,0 -1.6678,0 -1.66778,0 -1.66783,0 -1.66778,0 -1.68159,0 -1.66782,0 -1.66777,0 -1.66781,0 -1.6816,0 -1.66778,0 -1.66782,0 -1.66778,0 -1.66781,0 -1.68159,0 -1.66779,0 -1.6678,0 -1.66783,0 -1.66777,0 -1.68161,0 -1.6678,0 -1.66779,0 -1.66781,0 -1.66779,0 -1.68159,0 -1.6678,0 -1.66779,0 -1.66782,0 -1.68159,0 -1.66777,0 -1.66783,0 -1.66777,0 -1.66782,0 -1.68159,0 -1.66782,0 -1.66777,0 -1.66783,0 -1.66777,0 -1.68159,0 -1.66782,0 -1.66778,0 -1.66781,0 -1.68159,0 -1.66779,0 -1.66781,0 -1.66779,0 -1.6678,0 -1.6816,0 -1.66778,0 -1.6678,0 -1.66783,0 -1.66779,0 -1.6816,0 -1.6678,0 -1.66778,0 -1.66782,0 -1.66778,0 -1.6816,0 -1.66781,0 -1.66778,0 -1.66781,0 -1.6816,0 -1.66777,0 -1.66783,0 -1.66777,0 -1.66781,0 -1.6816,0 -1.66782,0 -1.66777,0 -1.66783,0 -1.66777,0 -1.68159,0 -1.66782,0 -1.66777,0 -1.66782,0 -1.68159,0 -1.66779,0 -1.66781,0 -1.66779,0 -1.6678,0 -1.68159,0 -1.66779,0 -1.6678,0 0,0 0,-0.41349 0,-0.42731 0,-0.41351 0,-0.4135 0,-0.42729 0,-0.4135 0,-0.41349 0,-0.41351 0,-0.42728 0,-0.41351 0,-0.41351 0,-0.42729 0,-0.41352 0,-0.41349 0,-0.4273 0,-0.41349 0,-0.41349 0,-0.41351 0,-0.42728 0,-0.41351 0,-0.41351 0,-0.42729 0,-0.41352 0,-0.41351 0,-0.42728 0,-0.41351 0,-0.41347 0,-0.41351 0,-0.42728 0,-0.41351 0,-0.41351 0,-0.4273 0,-0.41349 0,-0.41352 0,-0.42729 0,-0.41351 0,-0.41352 0,-0.42727 0,-0.41352 0,-0.41346 0,-0.41352 0,-0.42727 0,-0.41352 0,-0.41351 0,-0.42729 0,-0.41351 0,-0.41352 0,-0.42727 0,-0.41352 0,-0.41346 0,-0.41352 0,-0.42729 0,-0.4135 0,-0.41351 0,-0.42729 0,-0.41352 0,-0.41351 0,-0.42728 0,-0.41351 0,-0.41348 0,-0.4135 0,-0.42729 0,-0.4135 0,-0.41351 0,-0.42731 0,-0.41348 0,-0.41352 0,-0.42729 0,-0.41351 0,-0.41351 0,-0.42728 0,-0.41351 0,-0.41349 0,-0.41349 0,-0.4273 L 0,9.60709 0,9.19357 0,8.76628 0,8.35277 0,7.93925 0,7.51198 0,7.09846 0,6.68498 0,6.27148 0,5.8442 0,5.43068 0,5.01718 0,4.58987 0,4.17638 0,3.76286 0,3.33559 0,2.92207 0,2.50859 0,2.09508 0,1.6678 0,1.25429 0,0.84079 0,0.41348 0,0"
                         style="fill:none;stroke:#000000;stroke-width:0.79701;stroke-linecap:butt;stroke-linejoin:miter;stroke-miterlimit:10;stroke-dasharray:none;stroke-opacity:1"
                         id="path50"
                         inkscape:connector-curvature="0" /></g><g
                       id="g52"><path
                         d="m 13.78348,20.67522 0.08269,0.59268 0.23431,0.56511 0.39973,0.56514 0.56511,0.55133 0.71674,0.52377 0.88214,0.52377 1.01999,0.49622 1.18538,0.48241 1.337,0.45485 1.47481,0.42729 1.61269,0.4135 1.76426,0.38595 1.88837,0.35837 2.02617,0.3446 2.13643,0.30323 2.27428,0.26187 2.38453,0.24811 2.4948,0.20675 2.59132,0.17919 2.70156,0.13784 2.78425,0.11025 2.86698,0.08272 2.94966,0.04135 3.01857,0.01378 3.08752,-0.01378 3.14264,-0.04135 3.18398,-0.08272 3.23911,-0.09647 3.26668,-0.12405 3.29427,-0.15163 3.32181,-0.1654 3.32181,-0.19297 3.33563,-0.20673 3.32179,-0.23434 3.32182,-0.23429 3.29425,-0.26191 3.26668,-0.26188 3.23912,-0.27568 3.18399,-0.28946 3.14263,-0.28943 3.08752,-0.28946 3.01857,-0.30325 2.94966,-0.30323 2.86697,-0.28946 2.78426,-0.30322 2.70156,-0.30324 2.59132,-0.28945 2.4948,-0.28945 2.38453,-0.27568 2.27428,-0.27568 2.13643,-0.26187 2.02617,-0.24811 1.88836,-0.23431 1.76429,-0.23433 1.61267,-0.20676 1.47481,-0.19298 1.337,-0.17917 1.18538,-0.15161 1.01999,-0.13785 0.88214,-0.12405 0.71674,-0.09648 0.56511,-0.0827 0.39973,-0.05512 0.23433,-0.04135 0.0827,0 0,-0.35838 -0.0827,0 -0.23433,-0.04135 -0.39973,-0.05513 -0.56511,-0.08269 -0.71674,-0.0965 -0.88214,-0.12404 -1.01999,-0.13786 -1.18538,-0.1516 -1.337,-0.17918 -1.47481,-0.19296 -1.61267,-0.20677 -1.76429,-0.23432 -1.88836,-0.23431 -2.02617,-0.24811 -2.13643,-0.26187 -2.27428,-0.27568 -2.38453,-0.27568 -2.4948,-0.28945 -2.59132,-0.28946 -2.70156,-0.30323 -2.78426,-0.30324 -2.86697,-0.28945 -2.94966,-0.30322 -3.01857,-0.30325 -3.08752,-0.28946 -3.14263,-0.28943 -3.18399,-0.28948 -3.23912,-0.27566 -3.26668,-0.26189 -3.29425,-0.2619 -3.32182,-0.2343 -3.32179,-0.23433 -3.33563,-0.20674 -3.32181,-0.19296 -3.32181,-0.16542 -3.29427,-0.15161 -3.26668,-0.12406 -3.23911,-0.09646 -3.18398,-0.08272 -3.14264,-0.04135 -3.08752,-0.01378 -3.01857,0.01378 -2.94966,0.04135 -2.86698,0.08272 -2.78425,0.11024 -2.70156,0.13785 -2.59132,0.17919 -2.4948,0.20674 -2.38453,0.24812 -2.27428,0.26186 -2.13643,0.30323 -2.02617,0.34461 -1.88837,0.35837 -1.76426,0.38594 -1.61269,0.41351 -1.47481,0.42729 -1.337,0.45485 -1.18538,0.48241 -1.01999,0.4962 -0.88214,0.52379 -0.71674,0.52377 -0.56511,0.55133 -0.39973,0.56513 -0.23431,0.56512 -0.08269,0.5927"
                         style="fill:none;stroke:#8c1515;stroke-width:0.79701;stroke-linecap:butt;stroke-linejoin:miter;stroke-miterlimit:10;stroke-dasharray:none;stroke-opacity:1"
                         id="path54"
                         inkscape:connector-curvature="0" /></g></g></g><g
                   id="g56"><path
                     d="M 1.99255,0 C 1.99255,1.10046 1.10046,1.99255 0,1.99255 -1.10046,1.99255 -1.99255,1.10046 -1.99255,0 c 0,-1.10046 0.89209,-1.99255 1.99255,-1.99255 1.10046,0 1.99255,0.89209 1.99255,1.99255 z"
                     style="fill:none;stroke:#000000;stroke-width:0.79701;stroke-linecap:butt;stroke-linejoin:miter;stroke-miterlimit:10;stroke-dasharray:none;stroke-opacity:1"
                     id="path58"
                     inkscape:connector-curvature="0" /><path
                     d="m 50.23473,0 c 0,1.10046 -0.89208,1.99255 -1.99256,1.99255 -1.10046,0 -1.99255,-0.89209 -1.99255,-1.99255 0,-1.10046 0.89209,-1.99255 1.99255,-1.99255 1.10048,0 1.99256,0.89209 1.99256,1.99255 z"
                     style="fill:none;stroke:#000000;stroke-width:0.79701;stroke-linecap:butt;stroke-linejoin:miter;stroke-miterlimit:10;stroke-dasharray:none;stroke-opacity:1"
                     id="path60"
                     inkscape:connector-curvature="0" /><path
                     d="m 112.2604,0 c 0,1.10046 -0.89208,1.99255 -1.99255,1.99255 -1.10048,0 -1.99255,-0.89209 -1.99255,-1.99255 0,-1.10046 0.89207,-1.99255 1.99255,-1.99255 1.10047,0 1.99255,0.89209 1.99255,1.99255 z"
                     style="fill:none;stroke:#000000;stroke-width:0.79701;stroke-linecap:butt;stroke-linejoin:miter;stroke-miterlimit:10;stroke-dasharray:none;stroke-opacity:1"
                     id="path62"
                     inkscape:connector-curvature="0" /><path
                     d="m 167.39433,0 c 0,1.10046 -0.89209,1.99255 -1.99255,1.99255 -1.10048,0 -1.99255,-0.89209 -1.99255,-1.99255 0,-1.10046 0.89207,-1.99255 1.99255,-1.99255 1.10046,0 1.99255,0.89209 1.99255,1.99255 z"
                     style="fill:none;stroke:#000000;stroke-width:0.79701;stroke-linecap:butt;stroke-linejoin:miter;stroke-miterlimit:10;stroke-dasharray:none;stroke-opacity:1"
                     id="path64"
                     inkscape:connector-curvature="0" /><path
                     d="m 167.39433,41.35043 c 0,1.10048 -0.89209,1.99256 -1.99255,1.99256 -1.10048,0 -1.99255,-0.89208 -1.99255,-1.99256 0,-1.10046 0.89207,-1.99255 1.99255,-1.99255 1.10046,0 1.99255,0.89209 1.99255,1.99255 z"
                     style="fill:none;stroke:#000000;stroke-width:0.79701;stroke-linecap:butt;stroke-linejoin:miter;stroke-miterlimit:10;stroke-dasharray:none;stroke-opacity:1"
                     id="path66"
                     inkscape:connector-curvature="0" /><path
                     d="m 112.2604,41.35043 c 0,1.10048 -0.89208,1.99256 -1.99255,1.99256 -1.10048,0 -1.99255,-0.89208 -1.99255,-1.99256 0,-1.10046 0.89207,-1.99255 1.99255,-1.99255 1.10047,0 1.99255,0.89209 1.99255,1.99255 z"
                     style="fill:none;stroke:#000000;stroke-width:0.79701;stroke-linecap:butt;stroke-linejoin:miter;stroke-miterlimit:10;stroke-dasharray:none;stroke-opacity:1"
                     id="path68"
                     inkscape:connector-curvature="0" /><path
                     d="m 50.23473,41.35043 c 0,1.10048 -0.89208,1.99256 -1.99256,1.99256 -1.10046,0 -1.99255,-0.89208 -1.99255,-1.99256 0,-1.10046 0.89209,-1.99255 1.99255,-1.99255 1.10048,0 1.99256,0.89209 1.99256,1.99255 z"
                     style="fill:none;stroke:#000000;stroke-width:0.79701;stroke-linecap:butt;stroke-linejoin:miter;stroke-miterlimit:10;stroke-dasharray:none;stroke-opacity:1"
                     id="path70"
                     inkscape:connector-curvature="0" /><path
                     d="m 1.99255,41.35043 c 0,1.10048 -0.89209,1.99256 -1.99255,1.99256 -1.10046,0 -1.99255,-0.89208 -1.99255,-1.99256 0,-1.10046 0.89209,-1.99255 1.99255,-1.99255 1.10046,0 1.99255,0.89209 1.99255,1.99255 z"
                     style="fill:none;stroke:#000000;stroke-width:0.79701;stroke-linecap:butt;stroke-linejoin:miter;stroke-miterlimit:10;stroke-dasharray:none;stroke-opacity:1"
                     id="path72"
                     inkscape:connector-curvature="0" /></g></g></g><g
               id="g74"
               transform="translate(-8.27,-27.775)" /></g></g><g
           id="g76" /><g
           id="g78" /></g></g><path
       style="fill:#b3995d;fill-opacity:1;fill-rule:evenodd;stroke:#b3995d;stroke-width:0.80000001px;stroke-linecap:butt;stroke-linejoin:miter;stroke-opacity:1;marker-start:url(#DotS);marker-end:url(#Arrow2Mend)"
       d="m 8.2580497,27.990442 0,10.083513"
       id="path4206"
       inkscape:connector-curvature="0" /><path
       inkscape:connector-curvature="0"
       id="path5086"
       d="m 56.58937,27.773125 0,10.083513"
       style="fill:#b3995d;fill-opacity:1;fill-rule:evenodd;stroke:#b3995d;stroke-width:0.80000001px;stroke-linecap:butt;stroke-linejoin:miter;stroke-opacity:1;marker-start:url(#marker5088);marker-end:url(#marker5122)" /><path
       style="fill:#b3995d;fill-opacity:1;fill-rule:evenodd;stroke:#b3995d;stroke-width:0.80000001px;stroke-linecap:butt;stroke-linejoin:miter;stroke-opacity:1;marker-start:url(#marker5908);marker-end:url(#marker5954)"
       d="m 118.48128,27.773125 0,10.083513"
       id="path5906"
       inkscape:connector-curvature="0" /><path
       inkscape:connector-curvature="0"
       id="path6534"
       d="m 173.67982,27.773125 0,10.083513"
       style="fill:#b3995d;fill-opacity:1;fill-rule:evenodd;stroke:#b3995d;stroke-width:0.80000001px;stroke-linecap:butt;stroke-linejoin:miter;stroke-opacity:1;marker-start:url(#marker6536);marker-end:url(#marker6594)" /><path
       style="fill:#b3995d;fill-opacity:1;fill-rule:evenodd;stroke:#b3995d;stroke-width:0.80000001px;stroke-linecap:butt;stroke-linejoin:miter;stroke-opacity:1;marker-start:url(#marker7032);marker-end:url(#marker7102)"
       d="m 173.67982,69.063372 0,10.083513"
       id="path7030"
       inkscape:connector-curvature="0" /><path
       inkscape:connector-curvature="0"
       id="path7670"
       d="m 118.48128,69.063372 0,10.083513"
       style="fill:#b3995d;fill-opacity:1;fill-rule:evenodd;stroke:#b3995d;stroke-width:0.80000001px;stroke-linecap:butt;stroke-linejoin:miter;stroke-opacity:1;marker-start:url(#marker7672);marker-end:url(#marker7754)" /><path
       style="fill:#b3995d;fill-opacity:1;fill-rule:evenodd;stroke:#b3995d;stroke-width:0.80000001px;stroke-linecap:butt;stroke-linejoin:miter;stroke-opacity:1;marker-start:url(#marker8552);marker-end:url(#marker8646)"
       d="m 56.502446,69.063372 0,10.083513"
       id="path8550"
       inkscape:connector-curvature="0" /><path
       inkscape:connector-curvature="0"
       id="path8986"
       d="m 8.3449788,69.063372 0,10.083513"
       style="fill:#b3995d;fill-opacity:1;fill-rule:evenodd;stroke:#b3995d;stroke-width:0.80000001px;stroke-linecap:butt;stroke-linejoin:miter;stroke-opacity:1;marker-start:url(#marker8988);marker-end:url(#marker9094)" /><text
       xml:space="preserve"
       style="font-style:normal;font-weight:normal;font-size:32px;line-height:125%;font-family:sans-serif;letter-spacing:0px;word-spacing:0px;fill:#000000;fill-opacity:1;stroke:none;stroke-width:1px;stroke-linecap:butt;stroke-linejoin:miter;stroke-opacity:1"
       x="10.257367"
       y="-34.857662"
       id="text11918"
       sodipodi:linespacing="125%"
       transform="scale(1,-1)"><tspan
         sodipodi:role="line"
         id="tspan11920"
         x="10.257367"
         y="-34.857662"
         style="font-size:8px;fill:#b3995d">s<tspan
   style="font-size:51.99999809%;baseline-shift:sub"
   id="tspan11968">1</tspan></tspan></text>
<text
       transform="scale(1,-1)"
       sodipodi:linespacing="125%"
       id="text11926"
       y="-34.857662"
       x="59.284103"
       style="font-style:normal;font-weight:normal;font-size:32px;line-height:125%;font-family:sans-serif;letter-spacing:0px;word-spacing:0px;fill:#000000;fill-opacity:1;stroke:none;stroke-width:1px;stroke-linecap:butt;stroke-linejoin:miter;stroke-opacity:1"
       xml:space="preserve"><tspan
         style="font-size:8px;fill:#b3995d"
         y="-34.857662"
         x="59.284103"
         id="tspan11928"
         sodipodi:role="line">s<tspan
   style="font-size:51.99999809%;baseline-shift:sub"
   id="tspan11970">2</tspan></tspan></text>
<text
       xml:space="preserve"
       style="font-style:normal;font-weight:normal;font-size:32px;line-height:125%;font-family:sans-serif;letter-spacing:0px;word-spacing:0px;fill:#000000;fill-opacity:1;stroke:none;stroke-width:1px;stroke-linecap:butt;stroke-linejoin:miter;stroke-opacity:1"
       x="121.00216"
       y="-34.857662"
       id="text11932"
       sodipodi:linespacing="125%"
       transform="scale(1,-1)"><tspan
         sodipodi:role="line"
         id="tspan11934"
         x="121.00216"
         y="-34.857662"
         style="font-size:8px;fill:#b3995d">s<tspan
   style="font-size:51.99999809%;baseline-shift:sub"
   id="tspan11972">3</tspan></tspan></text>
<text
       transform="scale(1,-1)"
       sodipodi:linespacing="125%"
       id="text11938"
       y="-34.857662"
       x="176.11377"
       style="font-style:normal;font-weight:normal;font-size:32px;line-height:125%;font-family:sans-serif;letter-spacing:0px;word-spacing:0px;fill:#000000;fill-opacity:1;stroke:none;stroke-width:1px;stroke-linecap:butt;stroke-linejoin:miter;stroke-opacity:1"
       xml:space="preserve"><tspan
         style="font-size:8px;fill:#b3995d"
         y="-34.857662"
         x="176.11377"
         id="tspan11940"
         sodipodi:role="line">s<tspan
   style="font-size:51.99999809%;baseline-shift:sub"
   id="tspan11974">4</tspan></tspan></text>
<text
       xml:space="preserve"
       style="font-style:normal;font-weight:normal;font-size:32px;line-height:125%;font-family:sans-serif;letter-spacing:0px;word-spacing:0px;fill:#000000;fill-opacity:1;stroke:none;stroke-width:1px;stroke-linecap:butt;stroke-linejoin:miter;stroke-opacity:1"
       x="176.11377"
       y="-76.408691"
       id="text11944"
       sodipodi:linespacing="125%"
       transform="scale(1,-1)"><tspan
         sodipodi:role="line"
         id="tspan11946"
         x="176.11377"
         y="-76.408691"
         style="font-size:8px;fill:#b3995d">s<tspan
   style="font-size:51.99999809%;baseline-shift:sub"
   id="tspan11982">8</tspan></tspan></text>
<text
       transform="scale(1,-1)"
       sodipodi:linespacing="125%"
       id="text11950"
       y="-76.408691"
       x="120.8283"
       style="font-style:normal;font-weight:normal;font-size:32px;line-height:125%;font-family:sans-serif;letter-spacing:0px;word-spacing:0px;fill:#000000;fill-opacity:1;stroke:none;stroke-width:1px;stroke-linecap:butt;stroke-linejoin:miter;stroke-opacity:1"
       xml:space="preserve"><tspan
         style="font-size:8px;fill:#b3995d"
         y="-76.408691"
         x="120.8283"
         id="tspan11952"
         sodipodi:role="line">s<tspan
   style="font-size:51.99999809%;baseline-shift:sub"
   id="tspan11980">7</tspan></tspan></text>
<text
       xml:space="preserve"
       style="font-style:normal;font-weight:normal;font-size:32px;line-height:125%;font-family:sans-serif;letter-spacing:0px;word-spacing:0px;fill:#000000;fill-opacity:1;stroke:none;stroke-width:1px;stroke-linecap:butt;stroke-linejoin:miter;stroke-opacity:1"
       x="58.762539"
       y="-76.408691"
       id="text11956"
       sodipodi:linespacing="125%"
       transform="scale(1,-1)"><tspan
         sodipodi:role="line"
         id="tspan11958"
         x="58.762539"
         y="-76.408691"
         style="font-size:8px;fill:#b3995d">s<tspan
   style="font-size:51.99999809%;baseline-shift:sub"
   id="tspan11978">6</tspan></tspan></text>
<text
       transform="scale(1,-1)"
       sodipodi:linespacing="125%"
       id="text11962"
       y="-76.408691"
       x="10.605072"
       style="font-style:normal;font-weight:normal;font-size:32px;line-height:125%;font-family:sans-serif;letter-spacing:0px;word-spacing:0px;fill:#000000;fill-opacity:1;stroke:none;stroke-width:1px;stroke-linecap:butt;stroke-linejoin:miter;stroke-opacity:1"
       xml:space="preserve"><tspan
         style="font-size:8px;fill:#b3995d"
         y="-76.408691"
         x="10.605072"
         id="tspan11964"
         sodipodi:role="line">s<tspan
   style="font-size:51.99999809%;baseline-shift:sub"
   id="tspan11976">5</tspan></tspan></text>
<path
       style="fill:none;fill-rule:evenodd;stroke:#000000;stroke-width:0.80000001px;stroke-linecap:butt;stroke-linejoin:miter;stroke-opacity:1"
       d="m 190.64741,61.828807 10.44931,0"
       id="path4335"
       inkscape:connector-curvature="0" /><path
       inkscape:connector-curvature="0"
       id="path4337"
       d="m 190.64741,51.133626 10.44931,0"
       style="fill:none;fill-rule:evenodd;stroke:#8c1515;stroke-width:0.80000001px;stroke-linecap:butt;stroke-linejoin:miter;stroke-opacity:1" /><path
       style="fill:none;fill-rule:evenodd;stroke:#b3995d;stroke-width:0.80000001px;stroke-linecap:butt;stroke-linejoin:miter;stroke-opacity:1"
       d="m 190.64741,39.332047 10.44931,0"
       id="path4339"
       inkscape:connector-curvature="0" /><text
       transform="scale(1,-1)"
       sodipodi:linespacing="125%"
       id="text4341"
       y="-37.249691"
       x="203.28198"
       style="font-style:normal;font-weight:normal;font-size:32px;line-height:125%;font-family:sans-serif;letter-spacing:0px;word-spacing:0px;fill:#000000;fill-opacity:1;stroke:none;stroke-width:1px;stroke-linecap:butt;stroke-linejoin:miter;stroke-opacity:1"
       xml:space="preserve"><tspan
         style="font-size:8px;fill:#b3995d"
         y="-37.249691"
         x="203.28198"
         id="tspan4343"
         sodipodi:role="line">abstract variables</tspan></text>
<text
       xml:space="preserve"
       style="font-style:normal;font-weight:normal;font-size:32px;line-height:125%;font-family:sans-serif;letter-spacing:0px;word-spacing:0px;fill:#8c1515;fill-opacity:1;stroke:none;stroke-width:1px;stroke-linecap:butt;stroke-linejoin:miter;stroke-opacity:1"
       x="203.28198"
       y="-48.601719"
       id="text4347"
       sodipodi:linespacing="125%"
       transform="scale(1,-1)"><tspan
         sodipodi:role="line"
         id="tspan4349"
         x="203.28198"
         y="-48.601719"
         style="font-size:8px;fill:#8c1515">NACA profile</tspan></text>
<text
       transform="scale(1,-1)"
       sodipodi:linespacing="125%"
       id="text4351"
       y="-59.869385"
       x="203.28198"
       style="font-style:normal;font-weight:normal;font-size:32px;line-height:125%;font-family:sans-serif;letter-spacing:0px;word-spacing:0px;fill:#000000;fill-opacity:1;stroke:none;stroke-width:1px;stroke-linecap:butt;stroke-linejoin:miter;stroke-opacity:1"
       xml:space="preserve"><tspan
         style="font-size:8px;fill:#000000"
         y="-59.869385"
         x="203.28198"
         id="tspan4353"
         sodipodi:role="line">design elements</tspan></text>
</g></svg>